# MagicaVoxel @ Ephtracy

# group
o 

# material
mtllib Portal_1.2.1.mtl
usemtl palette

# normals
vn -1 0 0
vn 1 0 0
vn 0 0 1
vn 0 0 -1
vn 0 -1 0
vn 0 1 0

# texcoords
vt 0.939453 0.5
vt 0.970703 0.5
vt 0.986328 0.5

# verts
v -1.6 0 1.6
v -1.6 0 -1.6
v -1.6 0.5 1.6
v -1.6 0.5 0.1
v -1.6 0.5 -0.1
v -1.6 0.5 -1.6
v -1.6 8.1 0.4
v -1.6 8.1 0.1
v -1.6 8.1 -0.1
v -1.6 8.1 -0.4
v -1.6 8.7 0.4
v -1.6 8.7 -0.4
v -1.1 0.5 0.2
v -1.1 0.5 0.1
v -1.1 0.5 -0.1
v -1.1 0.5 -0.2
v -1.1 0.6 0.2
v -1.1 0.6 0.1
v -1.1 0.6 -0.1
v -1.1 0.6 -0.2
v -1.1 8 0.2
v -1.1 8 0.1
v -1.1 8 -0.1
v -1.1 8 -0.2
v -1.1 8.1 0.2
v -1.1 8.1 0.1
v -1.1 8.1 -0.1
v -1.1 8.1 -0.2
v -0.1 0.5 0.2
v -0.1 0.5 0.1
v -0.1 0.5 -0.1
v -0.1 0.5 -0.2
v -0.1 0.6 0.2
v -0.1 0.6 0.1
v -0.1 0.6 -0.1
v -0.1 0.6 -0.2
v -0.1 8 0.2
v -0.1 8 0.1
v -0.1 8 -0.1
v -0.1 8 -0.2
v -0.1 8.1 0.2
v -0.1 8.1 0.1
v -0.1 8.1 -0.1
v -0.1 8.1 -0.2
v 0.9 0.5 0.2
v 0.9 0.5 0.1
v 0.9 0.5 -0.1
v 0.9 0.5 -0.2
v 0.9 0.6 0.2
v 0.9 0.6 0.1
v 0.9 0.6 -0.1
v 0.9 0.6 -0.2
v 0.9 8 0.2
v 0.9 8 0.1
v 0.9 8 -0.1
v 0.9 8 -0.2
v 0.9 8.1 0.2
v 0.9 8.1 0.1
v 0.9 8.1 -0.1
v 0.9 8.1 -0.2
v -0.9 0.5 0.2
v -0.9 0.5 0.1
v -0.9 0.5 -0.1
v -0.9 0.5 -0.2
v -0.9 0.6 0.2
v -0.9 0.6 0.1
v -0.9 0.6 -0.1
v -0.9 0.6 -0.2
v -0.9 8 0.2
v -0.9 8 0.1
v -0.9 8 -0.1
v -0.9 8 -0.2
v -0.9 8.1 0.2
v -0.9 8.1 0.1
v -0.9 8.1 -0.1
v -0.9 8.1 -0.2
v 0.1 0.5 0.2
v 0.1 0.5 0.1
v 0.1 0.5 -0.1
v 0.1 0.5 -0.2
v 0.1 0.6 0.2
v 0.1 0.6 0.1
v 0.1 0.6 -0.1
v 0.1 0.6 -0.2
v 0.1 8 0.2
v 0.1 8 0.1
v 0.1 8 -0.1
v 0.1 8 -0.2
v 0.1 8.1 0.2
v 0.1 8.1 0.1
v 0.1 8.1 -0.1
v 0.1 8.1 -0.2
v 1.1 0.5 0.2
v 1.1 0.5 0.1
v 1.1 0.5 -0.1
v 1.1 0.5 -0.2
v 1.1 0.6 0.2
v 1.1 0.6 0.1
v 1.1 0.6 -0.1
v 1.1 0.6 -0.2
v 1.1 8 0.2
v 1.1 8 0.1
v 1.1 8 -0.1
v 1.1 8 -0.2
v 1.1 8.1 0.2
v 1.1 8.1 0.1
v 1.1 8.1 -0.1
v 1.1 8.1 -0.2
v 1.6 0 1.6
v 1.6 0 -1.6
v 1.6 0.5 1.6
v 1.6 0.5 0.1
v 1.6 0.5 -0.1
v 1.6 0.5 -1.6
v 1.6 8.1 0.4
v 1.6 8.1 0.1
v 1.6 8.1 -0.1
v 1.6 8.1 -0.4
v 1.6 8.7 0.4
v 1.6 8.7 -0.4
v -1.6 0 1.6
v -1.6 0.5 1.6
v 1.6 0 1.6
v 1.6 0.5 1.6
v -1.6 8.1 0.4
v -1.6 8.7 0.4
v 1.6 8.1 0.4
v 1.6 8.7 0.4
v -1.1 0.5 0.2
v -1.1 0.6 0.2
v -1.1 8 0.2
v -1.1 8.1 0.2
v -0.9 0.5 0.2
v -0.9 0.6 0.2
v -0.9 8 0.2
v -0.9 8.1 0.2
v -0.1 0.5 0.2
v -0.1 0.6 0.2
v -0.1 8 0.2
v -0.1 8.1 0.2
v 0.1 0.5 0.2
v 0.1 0.6 0.2
v 0.1 8 0.2
v 0.1 8.1 0.2
v 0.9 0.5 0.2
v 0.9 0.6 0.2
v 0.9 8 0.2
v 0.9 8.1 0.2
v 1.1 0.5 0.2
v 1.1 0.6 0.2
v 1.1 8 0.2
v 1.1 8.1 0.2
v -1.6 0.5 0.1
v -1.6 8.1 0.1
v -1.1 0.5 0.1
v -1.1 0.6 0.1
v -1.1 8 0.1
v -1.1 8.1 0.1
v -0.9 0.5 0.1
v -0.9 0.6 0.1
v -0.9 8 0.1
v -0.9 8.1 0.1
v -0.1 0.5 0.1
v -0.1 0.6 0.1
v -0.1 8 0.1
v -0.1 8.1 0.1
v 0.1 0.5 0.1
v 0.1 0.6 0.1
v 0.1 8 0.1
v 0.1 8.1 0.1
v 0.9 0.5 0.1
v 0.9 0.6 0.1
v 0.9 8 0.1
v 0.9 8.1 0.1
v 1.1 0.5 0.1
v 1.1 0.6 0.1
v 1.1 8 0.1
v 1.1 8.1 0.1
v 1.6 0.5 0.1
v 1.6 8.1 0.1
v -1.6 0.5 -0.1
v -1.6 8.1 -0.1
v -1.1 0.5 -0.1
v -1.1 0.6 -0.1
v -1.1 8 -0.1
v -1.1 8.1 -0.1
v -0.9 0.5 -0.1
v -0.9 0.6 -0.1
v -0.9 8 -0.1
v -0.9 8.1 -0.1
v -0.1 0.5 -0.1
v -0.1 0.6 -0.1
v -0.1 8 -0.1
v -0.1 8.1 -0.1
v 0.1 0.5 -0.1
v 0.1 0.6 -0.1
v 0.1 8 -0.1
v 0.1 8.1 -0.1
v 0.9 0.5 -0.1
v 0.9 0.6 -0.1
v 0.9 8 -0.1
v 0.9 8.1 -0.1
v 1.1 0.5 -0.1
v 1.1 0.6 -0.1
v 1.1 8 -0.1
v 1.1 8.1 -0.1
v 1.6 0.5 -0.1
v 1.6 8.1 -0.1
v -1.1 0.5 -0.2
v -1.1 0.6 -0.2
v -1.1 8 -0.2
v -1.1 8.1 -0.2
v -0.9 0.5 -0.2
v -0.9 0.6 -0.2
v -0.9 8 -0.2
v -0.9 8.1 -0.2
v -0.1 0.5 -0.2
v -0.1 0.6 -0.2
v -0.1 8 -0.2
v -0.1 8.1 -0.2
v 0.1 0.5 -0.2
v 0.1 0.6 -0.2
v 0.1 8 -0.2
v 0.1 8.1 -0.2
v 0.9 0.5 -0.2
v 0.9 0.6 -0.2
v 0.9 8 -0.2
v 0.9 8.1 -0.2
v 1.1 0.5 -0.2
v 1.1 0.6 -0.2
v 1.1 8 -0.2
v 1.1 8.1 -0.2
v -1.6 8.1 -0.4
v -1.6 8.7 -0.4
v 1.6 8.1 -0.4
v 1.6 8.7 -0.4
v -1.6 0 -1.6
v -1.6 0.5 -1.6
v 1.6 0 -1.6
v 1.6 0.5 -1.6
v -1.6 0 1.6
v 1.6 0 1.6
v -1.6 0 -1.6
v 1.6 0 -1.6
v -1.1 8 0.2
v -0.9 8 0.2
v -0.1 8 0.2
v 0.1 8 0.2
v 0.9 8 0.2
v 1.1 8 0.2
v -1.1 8 0.1
v -0.9 8 0.1
v -0.1 8 0.1
v 0.1 8 0.1
v 0.9 8 0.1
v 1.1 8 0.1
v -1.1 8 -0.1
v -0.9 8 -0.1
v -0.1 8 -0.1
v 0.1 8 -0.1
v 0.9 8 -0.1
v 1.1 8 -0.1
v -1.1 8 -0.2
v -0.9 8 -0.2
v -0.1 8 -0.2
v 0.1 8 -0.2
v 0.9 8 -0.2
v 1.1 8 -0.2
v -1.6 8.1 0.4
v 1.6 8.1 0.4
v -1.1 8.1 0.2
v -0.9 8.1 0.2
v -0.1 8.1 0.2
v 0.1 8.1 0.2
v 0.9 8.1 0.2
v 1.1 8.1 0.2
v -1.6 8.1 0.1
v -1.1 8.1 0.1
v -0.9 8.1 0.1
v -0.1 8.1 0.1
v 0.1 8.1 0.1
v 0.9 8.1 0.1
v 1.1 8.1 0.1
v 1.6 8.1 0.1
v -1.6 8.1 -0.1
v -1.1 8.1 -0.1
v -0.9 8.1 -0.1
v -0.1 8.1 -0.1
v 0.1 8.1 -0.1
v 0.9 8.1 -0.1
v 1.1 8.1 -0.1
v 1.6 8.1 -0.1
v -1.1 8.1 -0.2
v -0.9 8.1 -0.2
v -0.1 8.1 -0.2
v 0.1 8.1 -0.2
v 0.9 8.1 -0.2
v 1.1 8.1 -0.2
v -1.6 8.1 -0.4
v 1.6 8.1 -0.4
v -1.6 0.5 1.6
v 1.6 0.5 1.6
v -1.1 0.5 0.2
v -0.9 0.5 0.2
v -0.1 0.5 0.2
v 0.1 0.5 0.2
v 0.9 0.5 0.2
v 1.1 0.5 0.2
v -1.6 0.5 0.1
v -1.1 0.5 0.1
v -0.9 0.5 0.1
v -0.1 0.5 0.1
v 0.1 0.5 0.1
v 0.9 0.5 0.1
v 1.1 0.5 0.1
v 1.6 0.5 0.1
v -1.6 0.5 -0.1
v -1.1 0.5 -0.1
v -0.9 0.5 -0.1
v -0.1 0.5 -0.1
v 0.1 0.5 -0.1
v 0.9 0.5 -0.1
v 1.1 0.5 -0.1
v 1.6 0.5 -0.1
v -1.1 0.5 -0.2
v -0.9 0.5 -0.2
v -0.1 0.5 -0.2
v 0.1 0.5 -0.2
v 0.9 0.5 -0.2
v 1.1 0.5 -0.2
v -1.6 0.5 -1.6
v 1.6 0.5 -1.6
v -1.1 0.6 0.2
v -0.9 0.6 0.2
v -0.1 0.6 0.2
v 0.1 0.6 0.2
v 0.9 0.6 0.2
v 1.1 0.6 0.2
v -1.1 0.6 0.1
v -0.9 0.6 0.1
v -0.1 0.6 0.1
v 0.1 0.6 0.1
v 0.9 0.6 0.1
v 1.1 0.6 0.1
v -1.1 0.6 -0.1
v -0.9 0.6 -0.1
v -0.1 0.6 -0.1
v 0.1 0.6 -0.1
v 0.9 0.6 -0.1
v 1.1 0.6 -0.1
v -1.1 0.6 -0.2
v -0.9 0.6 -0.2
v -0.1 0.6 -0.2
v 0.1 0.6 -0.2
v 0.9 0.6 -0.2
v 1.1 0.6 -0.2
v -1.6 8.7 0.4
v 1.6 8.7 0.4
v -1.6 8.7 -0.4
v 1.6 8.7 -0.4

# faces
f 3/2/1 2/2/1 1/2/1
f 4/2/1 2/2/1 3/2/1
f 5/2/1 2/2/1 4/2/1
f 6/2/1 2/2/1 5/2/1
f 8/1/1 5/1/1 4/1/1
f 9/1/1 5/1/1 8/1/1
f 11/2/1 8/2/1 7/2/1
f 11/2/1 10/2/1 9/2/1
f 11/2/1 9/2/1 8/2/1
f 12/2/1 10/2/1 11/2/1
f 17/3/1 14/3/1 13/3/1
f 18/3/1 14/3/1 17/3/1
f 19/3/1 16/3/1 15/3/1
f 20/3/1 16/3/1 19/3/1
f 25/3/1 22/3/1 21/3/1
f 26/3/1 22/3/1 25/3/1
f 27/3/1 24/3/1 23/3/1
f 28/3/1 24/3/1 27/3/1
f 33/3/1 30/3/1 29/3/1
f 34/3/1 30/3/1 33/3/1
f 35/3/1 32/3/1 31/3/1
f 36/3/1 32/3/1 35/3/1
f 41/3/1 38/3/1 37/3/1
f 42/3/1 38/3/1 41/3/1
f 43/3/1 40/3/1 39/3/1
f 44/3/1 40/3/1 43/3/1
f 49/3/1 46/3/1 45/3/1
f 50/3/1 46/3/1 49/3/1
f 51/3/1 48/3/1 47/3/1
f 52/3/1 48/3/1 51/3/1
f 57/3/1 54/3/1 53/3/1
f 58/3/1 54/3/1 57/3/1
f 59/3/1 56/3/1 55/3/1
f 60/3/1 56/3/1 59/3/1
f 61/3/2 62/3/2 65/3/2
f 65/3/2 62/3/2 66/3/2
f 63/3/2 64/3/2 67/3/2
f 67/3/2 64/3/2 68/3/2
f 69/3/2 70/3/2 73/3/2
f 73/3/2 70/3/2 74/3/2
f 71/3/2 72/3/2 75/3/2
f 75/3/2 72/3/2 76/3/2
f 77/3/2 78/3/2 81/3/2
f 81/3/2 78/3/2 82/3/2
f 79/3/2 80/3/2 83/3/2
f 83/3/2 80/3/2 84/3/2
f 85/3/2 86/3/2 89/3/2
f 89/3/2 86/3/2 90/3/2
f 87/3/2 88/3/2 91/3/2
f 91/3/2 88/3/2 92/3/2
f 93/3/2 94/3/2 97/3/2
f 97/3/2 94/3/2 98/3/2
f 95/3/2 96/3/2 99/3/2
f 99/3/2 96/3/2 100/3/2
f 101/3/2 102/3/2 105/3/2
f 105/3/2 102/3/2 106/3/2
f 103/3/2 104/3/2 107/3/2
f 107/3/2 104/3/2 108/3/2
f 109/2/2 110/2/2 111/2/2
f 111/2/2 110/2/2 112/2/2
f 112/2/2 110/2/2 113/2/2
f 113/2/2 110/2/2 114/2/2
f 112/1/2 113/1/2 116/1/2
f 116/1/2 113/1/2 117/1/2
f 115/2/2 116/2/2 119/2/2
f 117/2/2 118/2/2 119/2/2
f 116/2/2 117/2/2 119/2/2
f 119/2/2 118/2/2 120/2/2
f 123/2/3 122/2/3 121/2/3
f 124/2/3 122/2/3 123/2/3
f 127/2/3 126/2/3 125/2/3
f 128/2/3 126/2/3 127/2/3
f 133/3/3 130/3/3 129/3/3
f 134/3/3 130/3/3 133/3/3
f 135/3/3 132/3/3 131/3/3
f 136/3/3 132/3/3 135/3/3
f 141/3/3 138/3/3 137/3/3
f 142/3/3 138/3/3 141/3/3
f 143/3/3 140/3/3 139/3/3
f 144/3/3 140/3/3 143/3/3
f 149/3/3 146/3/3 145/3/3
f 150/3/3 146/3/3 149/3/3
f 151/3/3 148/3/3 147/3/3
f 152/3/3 148/3/3 151/3/3
f 155/1/3 154/1/3 153/1/3
f 156/1/3 154/1/3 155/1/3
f 157/1/3 154/1/3 156/1/3
f 158/1/3 154/1/3 157/1/3
f 160/1/3 157/1/3 156/1/3
f 161/1/3 157/1/3 160/1/3
f 163/1/3 160/1/3 159/1/3
f 163/1/3 162/1/3 161/1/3
f 163/1/3 161/1/3 160/1/3
f 164/1/3 162/1/3 163/1/3
f 165/1/3 162/1/3 164/1/3
f 166/1/3 162/1/3 165/1/3
f 168/1/3 165/1/3 164/1/3
f 169/1/3 165/1/3 168/1/3
f 171/1/3 168/1/3 167/1/3
f 171/1/3 170/1/3 169/1/3
f 171/1/3 169/1/3 168/1/3
f 172/1/3 170/1/3 171/1/3
f 173/1/3 170/1/3 172/1/3
f 174/1/3 170/1/3 173/1/3
f 176/1/3 173/1/3 172/1/3
f 177/1/3 173/1/3 176/1/3
f 179/1/3 176/1/3 175/1/3
f 179/1/3 178/1/3 177/1/3
f 179/1/3 177/1/3 176/1/3
f 180/1/3 178/1/3 179/1/3
f 181/1/4 182/1/4 183/1/4
f 183/1/4 182/1/4 184/1/4
f 184/1/4 182/1/4 185/1/4
f 185/1/4 182/1/4 186/1/4
f 184/1/4 185/1/4 188/1/4
f 188/1/4 185/1/4 189/1/4
f 187/1/4 188/1/4 191/1/4
f 189/1/4 190/1/4 191/1/4
f 188/1/4 189/1/4 191/1/4
f 191/1/4 190/1/4 192/1/4
f 192/1/4 190/1/4 193/1/4
f 193/1/4 190/1/4 194/1/4
f 192/1/4 193/1/4 196/1/4
f 196/1/4 193/1/4 197/1/4
f 195/1/4 196/1/4 199/1/4
f 197/1/4 198/1/4 199/1/4
f 196/1/4 197/1/4 199/1/4
f 199/1/4 198/1/4 200/1/4
f 200/1/4 198/1/4 201/1/4
f 201/1/4 198/1/4 202/1/4
f 200/1/4 201/1/4 204/1/4
f 204/1/4 201/1/4 205/1/4
f 203/1/4 204/1/4 207/1/4
f 205/1/4 206/1/4 207/1/4
f 204/1/4 205/1/4 207/1/4
f 207/1/4 206/1/4 208/1/4
f 209/3/4 210/3/4 213/3/4
f 213/3/4 210/3/4 214/3/4
f 211/3/4 212/3/4 215/3/4
f 215/3/4 212/3/4 216/3/4
f 217/3/4 218/3/4 221/3/4
f 221/3/4 218/3/4 222/3/4
f 219/3/4 220/3/4 223/3/4
f 223/3/4 220/3/4 224/3/4
f 225/3/4 226/3/4 229/3/4
f 229/3/4 226/3/4 230/3/4
f 227/3/4 228/3/4 231/3/4
f 231/3/4 228/3/4 232/3/4
f 233/2/4 234/2/4 235/2/4
f 235/2/4 234/2/4 236/2/4
f 237/2/4 238/2/4 239/2/4
f 239/2/4 238/2/4 240/2/4
f 243/2/5 242/2/5 241/2/5
f 244/2/5 242/2/5 243/2/5
f 251/3/5 246/3/5 245/3/5
f 252/3/5 246/3/5 251/3/5
f 253/3/5 248/3/5 247/3/5
f 254/3/5 248/3/5 253/3/5
f 255/3/5 250/3/5 249/3/5
f 256/3/5 250/3/5 255/3/5
f 263/3/5 258/3/5 257/3/5
f 264/3/5 258/3/5 263/3/5
f 265/3/5 260/3/5 259/3/5
f 266/3/5 260/3/5 265/3/5
f 267/3/5 262/3/5 261/3/5
f 268/3/5 262/3/5 267/3/5
f 271/2/5 270/2/5 269/2/5
f 272/2/5 270/2/5 271/2/5
f 273/2/5 270/2/5 272/2/5
f 274/2/5 270/2/5 273/2/5
f 275/2/5 270/2/5 274/2/5
f 276/2/5 270/2/5 275/2/5
f 277/2/5 271/2/5 269/2/5
f 278/2/5 271/2/5 277/2/5
f 279/2/5 273/2/5 272/2/5
f 280/2/5 273/2/5 279/2/5
f 281/2/5 275/2/5 274/2/5
f 282/2/5 275/2/5 281/2/5
f 283/2/5 270/2/5 276/2/5
f 284/2/5 270/2/5 283/2/5
f 293/2/5 286/2/5 285/2/5
f 294/2/5 288/2/5 287/2/5
f 295/2/5 288/2/5 294/2/5
f 296/2/5 290/2/5 289/2/5
f 297/2/5 290/2/5 296/2/5
f 298/2/5 292/2/5 291/2/5
f 299/2/5 297/2/5 296/2/5
f 299/2/5 298/2/5 297/2/5
f 299/2/5 293/2/5 285/2/5
f 299/2/5 295/2/5 294/2/5
f 299/2/5 296/2/5 295/2/5
f 299/2/5 294/2/5 293/2/5
f 300/2/5 292/2/5 298/2/5
f 300/2/5 298/2/5 299/2/5
f 301/2/6 302/2/6 303/2/6
f 303/2/6 302/2/6 304/2/6
f 304/2/6 302/2/6 305/2/6
f 305/2/6 302/2/6 306/2/6
f 306/2/6 302/2/6 307/2/6
f 307/2/6 302/2/6 308/2/6
f 301/2/6 303/2/6 309/2/6
f 309/2/6 303/2/6 310/2/6
f 304/2/6 305/2/6 311/2/6
f 311/2/6 305/2/6 312/2/6
f 306/2/6 307/2/6 313/2/6
f 313/2/6 307/2/6 314/2/6
f 308/2/6 302/2/6 315/2/6
f 315/2/6 302/2/6 316/2/6
f 317/2/6 318/2/6 325/2/6
f 319/2/6 320/2/6 326/2/6
f 326/2/6 320/2/6 327/2/6
f 321/2/6 322/2/6 328/2/6
f 328/2/6 322/2/6 329/2/6
f 323/2/6 324/2/6 330/2/6
f 328/2/6 329/2/6 331/2/6
f 329/2/6 330/2/6 331/2/6
f 317/2/6 325/2/6 331/2/6
f 326/2/6 327/2/6 331/2/6
f 327/2/6 328/2/6 331/2/6
f 325/2/6 326/2/6 331/2/6
f 330/2/6 324/2/6 332/2/6
f 331/2/6 330/2/6 332/2/6
f 333/3/6 334/3/6 339/3/6
f 339/3/6 334/3/6 340/3/6
f 335/3/6 336/3/6 341/3/6
f 341/3/6 336/3/6 342/3/6
f 337/3/6 338/3/6 343/3/6
f 343/3/6 338/3/6 344/3/6
f 345/3/6 346/3/6 351/3/6
f 351/3/6 346/3/6 352/3/6
f 347/3/6 348/3/6 353/3/6
f 353/3/6 348/3/6 354/3/6
f 349/3/6 350/3/6 355/3/6
f 355/3/6 350/3/6 356/3/6
f 357/2/6 358/2/6 359/2/6
f 359/2/6 358/2/6 360/2/6
