# MagicaVoxel @ Ephtracy

# group
o 

# material
mtllib Portal_2.2.1.mtl
usemtl palette

# normals
vn -1 0 0
vn 1 0 0
vn 0 0 1
vn 0 0 -1
vn 0 -1 0
vn 0 1 0

# texcoords
vt 0.970703 0.5
vt 0.986328 0.5

# verts
v -1.6 0 1.6
v -1.6 0 -1.6
v -1.6 0.5 1.6
v -1.6 0.5 -1.6
v -1.6 8.1 0.4
v -1.6 8.1 -0.4
v -1.6 8.7 0.4
v -1.6 8.7 -0.4
v -1.1 0.5 0.2
v -1.1 0.5 -0.2
v -1.1 0.6 0.2
v -1.1 0.6 -0.2
v -1.1 8 0.2
v -1.1 8 -0.2
v -1.1 8.1 0.2
v -1.1 8.1 -0.2
v -0.1 0.5 0.2
v -0.1 0.5 -0.2
v -0.1 0.6 0.2
v -0.1 0.6 -0.2
v -0.1 8 0.2
v -0.1 8 -0.2
v -0.1 8.1 0.2
v -0.1 8.1 -0.2
v 0.9 0.5 0.2
v 0.9 0.5 -0.2
v 0.9 0.6 0.2
v 0.9 0.6 -0.2
v 0.9 8 0.2
v 0.9 8 -0.2
v 0.9 8.1 0.2
v 0.9 8.1 -0.2
v -0.9 0.5 0.2
v -0.9 0.5 -0.2
v -0.9 0.6 0.2
v -0.9 0.6 -0.2
v -0.9 8 0.2
v -0.9 8 -0.2
v -0.9 8.1 0.2
v -0.9 8.1 -0.2
v 0.1 0.5 0.2
v 0.1 0.5 -0.2
v 0.1 0.6 0.2
v 0.1 0.6 -0.2
v 0.1 8 0.2
v 0.1 8 -0.2
v 0.1 8.1 0.2
v 0.1 8.1 -0.2
v 1.1 0.5 0.2
v 1.1 0.5 -0.2
v 1.1 0.6 0.2
v 1.1 0.6 -0.2
v 1.1 8 0.2
v 1.1 8 -0.2
v 1.1 8.1 0.2
v 1.1 8.1 -0.2
v 1.6 0 1.6
v 1.6 0 -1.6
v 1.6 0.5 1.6
v 1.6 0.5 -1.6
v 1.6 8.1 0.4
v 1.6 8.1 -0.4
v 1.6 8.7 0.4
v 1.6 8.7 -0.4
v -1.6 0 1.6
v -1.6 0.5 1.6
v 1.6 0 1.6
v 1.6 0.5 1.6
v -1.6 8.1 0.4
v -1.6 8.7 0.4
v 1.6 8.1 0.4
v 1.6 8.7 0.4
v -1.1 0.5 0.2
v -1.1 0.6 0.2
v -1.1 8 0.2
v -1.1 8.1 0.2
v -0.9 0.5 0.2
v -0.9 0.6 0.2
v -0.9 8 0.2
v -0.9 8.1 0.2
v -0.1 0.5 0.2
v -0.1 0.6 0.2
v -0.1 8 0.2
v -0.1 8.1 0.2
v 0.1 0.5 0.2
v 0.1 0.6 0.2
v 0.1 8 0.2
v 0.1 8.1 0.2
v 0.9 0.5 0.2
v 0.9 0.6 0.2
v 0.9 8 0.2
v 0.9 8.1 0.2
v 1.1 0.5 0.2
v 1.1 0.6 0.2
v 1.1 8 0.2
v 1.1 8.1 0.2
v -1.1 0.5 -0.2
v -1.1 0.6 -0.2
v -1.1 8 -0.2
v -1.1 8.1 -0.2
v -0.9 0.5 -0.2
v -0.9 0.6 -0.2
v -0.9 8 -0.2
v -0.9 8.1 -0.2
v -0.1 0.5 -0.2
v -0.1 0.6 -0.2
v -0.1 8 -0.2
v -0.1 8.1 -0.2
v 0.1 0.5 -0.2
v 0.1 0.6 -0.2
v 0.1 8 -0.2
v 0.1 8.1 -0.2
v 0.9 0.5 -0.2
v 0.9 0.6 -0.2
v 0.9 8 -0.2
v 0.9 8.1 -0.2
v 1.1 0.5 -0.2
v 1.1 0.6 -0.2
v 1.1 8 -0.2
v 1.1 8.1 -0.2
v -1.6 8.1 -0.4
v -1.6 8.7 -0.4
v 1.6 8.1 -0.4
v 1.6 8.7 -0.4
v -1.6 0 -1.6
v -1.6 0.5 -1.6
v 1.6 0 -1.6
v 1.6 0.5 -1.6
v -1.6 0 1.6
v 1.6 0 1.6
v -1.6 0 -1.6
v 1.6 0 -1.6
v -1.1 8 0.2
v -0.9 8 0.2
v -0.1 8 0.2
v 0.1 8 0.2
v 0.9 8 0.2
v 1.1 8 0.2
v -1.1 8 -0.2
v -0.9 8 -0.2
v -0.1 8 -0.2
v 0.1 8 -0.2
v 0.9 8 -0.2
v 1.1 8 -0.2
v -1.6 8.1 0.4
v 1.6 8.1 0.4
v -1.1 8.1 0.2
v -0.9 8.1 0.2
v -0.1 8.1 0.2
v 0.1 8.1 0.2
v 0.9 8.1 0.2
v 1.1 8.1 0.2
v -1.1 8.1 -0.2
v -0.9 8.1 -0.2
v -0.1 8.1 -0.2
v 0.1 8.1 -0.2
v 0.9 8.1 -0.2
v 1.1 8.1 -0.2
v -1.6 8.1 -0.4
v 1.6 8.1 -0.4
v -1.6 0.5 1.6
v 1.6 0.5 1.6
v -1.1 0.5 0.2
v -0.9 0.5 0.2
v -0.1 0.5 0.2
v 0.1 0.5 0.2
v 0.9 0.5 0.2
v 1.1 0.5 0.2
v -1.1 0.5 -0.2
v -0.9 0.5 -0.2
v -0.1 0.5 -0.2
v 0.1 0.5 -0.2
v 0.9 0.5 -0.2
v 1.1 0.5 -0.2
v -1.6 0.5 -1.6
v 1.6 0.5 -1.6
v -1.1 0.6 0.2
v -0.9 0.6 0.2
v -0.1 0.6 0.2
v 0.1 0.6 0.2
v 0.9 0.6 0.2
v 1.1 0.6 0.2
v -1.1 0.6 -0.2
v -0.9 0.6 -0.2
v -0.1 0.6 -0.2
v 0.1 0.6 -0.2
v 0.9 0.6 -0.2
v 1.1 0.6 -0.2
v -1.6 8.7 0.4
v 1.6 8.7 0.4
v -1.6 8.7 -0.4
v 1.6 8.7 -0.4

# faces
f 3/1/1 2/1/1 1/1/1
f 4/1/1 2/1/1 3/1/1
f 7/1/1 6/1/1 5/1/1
f 8/1/1 6/1/1 7/1/1
f 11/2/1 10/2/1 9/2/1
f 12/2/1 10/2/1 11/2/1
f 15/2/1 14/2/1 13/2/1
f 16/2/1 14/2/1 15/2/1
f 19/2/1 18/2/1 17/2/1
f 20/2/1 18/2/1 19/2/1
f 23/2/1 22/2/1 21/2/1
f 24/2/1 22/2/1 23/2/1
f 27/2/1 26/2/1 25/2/1
f 28/2/1 26/2/1 27/2/1
f 31/2/1 30/2/1 29/2/1
f 32/2/1 30/2/1 31/2/1
f 33/2/2 34/2/2 35/2/2
f 35/2/2 34/2/2 36/2/2
f 37/2/2 38/2/2 39/2/2
f 39/2/2 38/2/2 40/2/2
f 41/2/2 42/2/2 43/2/2
f 43/2/2 42/2/2 44/2/2
f 45/2/2 46/2/2 47/2/2
f 47/2/2 46/2/2 48/2/2
f 49/2/2 50/2/2 51/2/2
f 51/2/2 50/2/2 52/2/2
f 53/2/2 54/2/2 55/2/2
f 55/2/2 54/2/2 56/2/2
f 57/1/2 58/1/2 59/1/2
f 59/1/2 58/1/2 60/1/2
f 61/1/2 62/1/2 63/1/2
f 63/1/2 62/1/2 64/1/2
f 67/1/3 66/1/3 65/1/3
f 68/1/3 66/1/3 67/1/3
f 71/1/3 70/1/3 69/1/3
f 72/1/3 70/1/3 71/1/3
f 77/2/3 74/2/3 73/2/3
f 78/2/3 74/2/3 77/2/3
f 79/2/3 76/2/3 75/2/3
f 80/2/3 76/2/3 79/2/3
f 85/2/3 82/2/3 81/2/3
f 86/2/3 82/2/3 85/2/3
f 87/2/3 84/2/3 83/2/3
f 88/2/3 84/2/3 87/2/3
f 93/2/3 90/2/3 89/2/3
f 94/2/3 90/2/3 93/2/3
f 95/2/3 92/2/3 91/2/3
f 96/2/3 92/2/3 95/2/3
f 97/2/4 98/2/4 101/2/4
f 101/2/4 98/2/4 102/2/4
f 99/2/4 100/2/4 103/2/4
f 103/2/4 100/2/4 104/2/4
f 105/2/4 106/2/4 109/2/4
f 109/2/4 106/2/4 110/2/4
f 107/2/4 108/2/4 111/2/4
f 111/2/4 108/2/4 112/2/4
f 113/2/4 114/2/4 117/2/4
f 117/2/4 114/2/4 118/2/4
f 115/2/4 116/2/4 119/2/4
f 119/2/4 116/2/4 120/2/4
f 121/1/4 122/1/4 123/1/4
f 123/1/4 122/1/4 124/1/4
f 125/1/4 126/1/4 127/1/4
f 127/1/4 126/1/4 128/1/4
f 131/1/5 130/1/5 129/1/5
f 132/1/5 130/1/5 131/1/5
f 139/2/5 134/2/5 133/2/5
f 140/2/5 134/2/5 139/2/5
f 141/2/5 136/2/5 135/2/5
f 142/2/5 136/2/5 141/2/5
f 143/2/5 138/2/5 137/2/5
f 144/2/5 138/2/5 143/2/5
f 147/1/5 146/1/5 145/1/5
f 148/1/5 146/1/5 147/1/5
f 149/1/5 146/1/5 148/1/5
f 150/1/5 146/1/5 149/1/5
f 151/1/5 146/1/5 150/1/5
f 152/1/5 146/1/5 151/1/5
f 153/1/5 147/1/5 145/1/5
f 154/1/5 149/1/5 148/1/5
f 155/1/5 149/1/5 154/1/5
f 156/1/5 151/1/5 150/1/5
f 157/1/5 151/1/5 156/1/5
f 158/1/5 146/1/5 152/1/5
f 159/1/5 157/1/5 156/1/5
f 159/1/5 158/1/5 157/1/5
f 159/1/5 155/1/5 154/1/5
f 159/1/5 153/1/5 145/1/5
f 159/1/5 156/1/5 155/1/5
f 159/1/5 154/1/5 153/1/5
f 160/1/5 146/1/5 158/1/5
f 160/1/5 158/1/5 159/1/5
f 161/1/6 162/1/6 163/1/6
f 163/1/6 162/1/6 164/1/6
f 164/1/6 162/1/6 165/1/6
f 165/1/6 162/1/6 166/1/6
f 166/1/6 162/1/6 167/1/6
f 167/1/6 162/1/6 168/1/6
f 161/1/6 163/1/6 169/1/6
f 164/1/6 165/1/6 170/1/6
f 170/1/6 165/1/6 171/1/6
f 166/1/6 167/1/6 172/1/6
f 172/1/6 167/1/6 173/1/6
f 168/1/6 162/1/6 174/1/6
f 172/1/6 173/1/6 175/1/6
f 173/1/6 174/1/6 175/1/6
f 170/1/6 171/1/6 175/1/6
f 161/1/6 169/1/6 175/1/6
f 171/1/6 172/1/6 175/1/6
f 169/1/6 170/1/6 175/1/6
f 174/1/6 162/1/6 176/1/6
f 175/1/6 174/1/6 176/1/6
f 177/2/6 178/2/6 183/2/6
f 183/2/6 178/2/6 184/2/6
f 179/2/6 180/2/6 185/2/6
f 185/2/6 180/2/6 186/2/6
f 181/2/6 182/2/6 187/2/6
f 187/2/6 182/2/6 188/2/6
f 189/1/6 190/1/6 191/1/6
f 191/1/6 190/1/6 192/1/6
