# MagicaVoxel @ Ephtracy

# group
o 

# material
mtllib Portal_3.1.1.mtl
usemtl palette

# normals
vn -1 0 0
vn 1 0 0
vn 0 0 1
vn 0 0 -1
vn 0 -1 0
vn 0 1 0

# texcoords
vt 0.970703 0.5
vt 0.974609 0.5
vt 0.986328 0.5

# verts
v -1.6 0 1.6
v -1.6 0 -1.6
v -1.6 0.5 1.6
v -1.6 0.5 -1.6
v -0.4 0.5 0.4
v -0.4 0.5 -0.4
v -0.4 3.6 0.4
v -0.4 3.6 0.3
v -0.4 3.6 0.2
v -0.4 3.7 0.3
v -0.4 3.7 0.2
v -0.4 3.9 0.3
v -0.4 3.9 0.2
v -0.4 4.1 0.3
v -0.4 4.1 0.2
v -0.4 4.2 0.4
v -0.4 4.2 0.3
v -0.4 5.5 -0.3
v -0.4 5.5 -0.4
v -0.4 5.8 -0.1
v -0.4 5.8 -0.3
v -0.4 5.9 -0.1
v -0.4 5.9 -0.2
v -0.4 6.1 -0.2
v -0.4 6.1 -0.3
v -0.4 6.2 -0.3
v -0.4 6.2 -0.4
v -0.4 6.7 0.4
v -0.4 6.7 0.3
v -0.4 6.9 0.3
v -0.4 6.9 0.2
v -0.4 7 0.2
v -0.4 7 0.1
v -0.4 7.1 0.1
v -0.4 7.1 0
v -0.4 7.2 0
v -0.4 7.2 -0.1
v -0.4 7.3 -0.1
v -0.4 7.3 -0.3
v -0.4 7.7 -0.3
v -0.4 7.7 -0.4
v 1.1 0.5 0.2
v 1.1 0.5 -0.2
v 1.1 0.6 0.2
v 1.1 0.6 -0.2
v -0.3 7.5 -0.3
v -0.3 7.5 -0.4
v -0.3 7.7 -0.3
v -0.3 7.7 -0.4
v -0.2 7.4 -0.3
v -0.2 7.4 -0.4
v -0.2 7.5 -0.3
v -0.2 7.5 -0.4
v -0.1 7.3 -0.3
v -0.1 7.3 -0.4
v -0.1 7.4 -0.3
v -0.1 7.4 -0.4
v 0 7.2 -0.1
v 0 7.2 -0.4
v 0 7.3 -0.1
v 0 7.3 -0.4
v 0.1 7.1 0
v 0.1 7.1 -0.4
v 0.1 7.2 0
v 0.1 7.2 -0.4
v 0.2 6.8 0.3
v 0.2 6.8 -0.4
v 0.2 6.9 0.3
v 0.2 6.9 0.2
v 0.2 7 0.2
v 0.2 7 0.1
v 0.2 7.1 0.1
v 0.2 7.1 -0.4
v 0.3 6.7 0.3
v 0.3 6.7 -0.4
v 0.3 6.8 0.3
v 0.3 6.8 -0.4
v 0.4 0.5 0.4
v 0.4 0.5 -0.4
v 0.4 1.2 0.2
v 0.4 1.2 -0.2
v 0.4 1.4 0.2
v 0.4 1.4 -0.2
v 0.4 2.2 0.2
v 0.4 2.2 -0.2
v 0.4 2.4 0.2
v 0.4 2.4 -0.2
v 0.4 3.2 0.2
v 0.4 3.2 -0.2
v 0.4 3.4 0.2
v 0.4 3.4 -0.2
v 0.4 3.6 0.4
v 0.4 3.6 0.3
v 0.4 3.9 0.3
v 0.4 3.9 0.2
v 0.4 4.1 0.3
v 0.4 4.1 0.2
v 0.4 4.2 0.4
v 0.4 4.2 0.3
v 0.4 4.2 0.2
v 0.4 4.2 -0.2
v 0.4 4.4 0.2
v 0.4 4.4 -0.2
v 0.4 5.2 0.2
v 0.4 5.2 -0.2
v 0.4 5.4 0.2
v 0.4 5.4 -0.2
v 0.4 5.5 -0.3
v 0.4 5.5 -0.4
v 0.4 5.8 -0.1
v 0.4 5.8 -0.3
v 0.4 5.9 -0.1
v 0.4 5.9 -0.2
v 0.4 6.1 -0.2
v 0.4 6.1 -0.3
v 0.4 6.2 0.2
v 0.4 6.2 -0.2
v 0.4 6.2 -0.3
v 0.4 6.2 -0.4
v 0.4 6.4 0.2
v 0.4 6.4 -0.2
v 0.4 6.7 0.4
v 0.4 6.7 -0.4
v 0.5 1.2 0.2
v 0.5 1.2 -0.2
v 0.5 1.4 0.2
v 0.5 1.4 -0.2
v 0.5 2.2 0.2
v 0.5 2.2 -0.2
v 0.5 2.4 0.2
v 0.5 2.4 -0.2
v 0.5 3.2 0.2
v 0.5 3.2 -0.2
v 0.5 3.4 0.2
v 0.5 3.4 -0.2
v 0.5 4.2 0.2
v 0.5 4.2 -0.2
v 0.5 4.4 0.2
v 0.5 4.4 -0.2
v 0.5 5.2 0.2
v 0.5 5.2 -0.2
v 0.5 5.4 0.2
v 0.5 5.4 -0.2
v 0.5 6.2 0.2
v 0.5 6.2 -0.2
v 0.5 6.4 0.2
v 0.5 6.4 -0.2
v 1.3 0.5 0.2
v 1.3 0.5 -0.2
v 1.3 0.6 0.2
v 1.3 0.6 -0.2
v 1.6 0 1.6
v 1.6 0 -1.6
v 1.6 0.5 1.6
v 1.6 0.5 -1.6
v -1.6 0 1.6
v -1.6 0.5 1.6
v 1.6 0 1.6
v 1.6 0.5 1.6
v -0.4 0.5 0.4
v -0.4 3.6 0.4
v -0.4 4.2 0.4
v -0.4 6.7 0.4
v 0.4 0.5 0.4
v 0.4 3.6 0.4
v 0.4 4.2 0.4
v 0.4 6.7 0.4
v -0.4 3.6 0.3
v -0.4 3.7 0.3
v -0.4 3.9 0.3
v -0.4 4.1 0.3
v -0.4 4.2 0.3
v -0.4 6.7 0.3
v -0.4 6.9 0.3
v -0.3 3.6 0.3
v -0.3 3.7 0.3
v -0.3 3.8 0.3
v -0.3 4.1 0.3
v -0.3 4.2 0.3
v -0.2 3.6 0.3
v -0.2 3.7 0.3
v -0.2 3.8 0.3
v -0.2 4.1 0.3
v -0.2 4.2 0.3
v -0.1 3.6 0.3
v -0.1 3.7 0.3
v 0.2 3.6 0.3
v 0.2 3.8 0.3
v 0.2 6.8 0.3
v 0.2 6.9 0.3
v 0.3 3.6 0.3
v 0.3 3.8 0.3
v 0.3 6.7 0.3
v 0.3 6.8 0.3
v 0.4 3.6 0.3
v 0.4 3.9 0.3
v 0.4 4.1 0.3
v 0.4 4.2 0.3
v -0.4 3.9 0.2
v -0.4 4.1 0.2
v -0.4 6.9 0.2
v -0.4 7 0.2
v -0.3 4 0.2
v -0.3 4.1 0.2
v -0.2 4 0.2
v -0.2 4.1 0.2
v 0.1 3.9 0.2
v 0.1 4 0.2
v 0.2 3.9 0.2
v 0.2 4 0.2
v 0.2 6.9 0.2
v 0.2 7 0.2
v 0.4 1.2 0.2
v 0.4 1.4 0.2
v 0.4 2.2 0.2
v 0.4 2.4 0.2
v 0.4 3.2 0.2
v 0.4 3.4 0.2
v 0.4 3.9 0.2
v 0.4 4.1 0.2
v 0.4 4.2 0.2
v 0.4 4.4 0.2
v 0.4 5.2 0.2
v 0.4 5.4 0.2
v 0.4 6.2 0.2
v 0.4 6.4 0.2
v 0.5 1.2 0.2
v 0.5 1.4 0.2
v 0.5 2.2 0.2
v 0.5 2.4 0.2
v 0.5 3.2 0.2
v 0.5 3.4 0.2
v 0.5 4.2 0.2
v 0.5 4.4 0.2
v 0.5 5.2 0.2
v 0.5 5.4 0.2
v 0.5 6.2 0.2
v 0.5 6.4 0.2
v 1.1 0.5 0.2
v 1.1 0.6 0.2
v 1.3 0.5 0.2
v 1.3 0.6 0.2
v -0.4 7 0.1
v -0.4 7.1 0.1
v 0.2 7 0.1
v 0.2 7.1 0.1
v -0.4 7.1 0
v -0.4 7.2 0
v 0.1 7.1 0
v 0.1 7.2 0
v -0.4 7.2 -0.1
v -0.4 7.3 -0.1
v 0 7.2 -0.1
v 0 7.3 -0.1
v -0.4 7.3 -0.3
v -0.4 7.7 -0.3
v -0.3 7.5 -0.3
v -0.3 7.7 -0.3
v -0.2 7.4 -0.3
v -0.2 7.5 -0.3
v -0.1 7.3 -0.3
v -0.1 7.4 -0.3
v -0.4 5.8 -0.1
v -0.4 5.9 -0.1
v -0.2 5.8 -0.1
v -0.2 5.9 -0.1
v -0.1 5.8 -0.1
v -0.1 5.9 -0.1
v 0 5.9 -0.1
v 0.1 5.9 -0.1
v 0.2 5.8 -0.1
v 0.2 5.9 -0.1
v 0.3 5.8 -0.1
v 0.3 5.9 -0.1
v 0.4 5.8 -0.1
v 0.4 5.9 -0.1
v -0.4 5.9 -0.2
v -0.4 6.1 -0.2
v -0.3 6.1 -0.2
v -0.2 6.1 -0.2
v 0 5.9 -0.2
v 0 6.1 -0.2
v 0.1 5.9 -0.2
v 0.1 6.1 -0.2
v 0.4 1.2 -0.2
v 0.4 1.4 -0.2
v 0.4 2.2 -0.2
v 0.4 2.4 -0.2
v 0.4 3.2 -0.2
v 0.4 3.4 -0.2
v 0.4 4.2 -0.2
v 0.4 4.4 -0.2
v 0.4 5.2 -0.2
v 0.4 5.4 -0.2
v 0.4 5.9 -0.2
v 0.4 6.1 -0.2
v 0.4 6.2 -0.2
v 0.4 6.4 -0.2
v 0.5 1.2 -0.2
v 0.5 1.4 -0.2
v 0.5 2.2 -0.2
v 0.5 2.4 -0.2
v 0.5 3.2 -0.2
v 0.5 3.4 -0.2
v 0.5 4.2 -0.2
v 0.5 4.4 -0.2
v 0.5 5.2 -0.2
v 0.5 5.4 -0.2
v 0.5 6.2 -0.2
v 0.5 6.4 -0.2
v 1.1 0.5 -0.2
v 1.1 0.6 -0.2
v 1.3 0.5 -0.2
v 1.3 0.6 -0.2
v -0.4 5.5 -0.3
v -0.4 5.8 -0.3
v -0.4 6.1 -0.3
v -0.4 6.2 -0.3
v -0.3 5.7 -0.3
v -0.3 5.8 -0.3
v -0.3 6.1 -0.3
v -0.3 6.2 -0.3
v -0.2 5.7 -0.3
v -0.2 5.8 -0.3
v -0.2 6.1 -0.3
v -0.2 6.2 -0.3
v 0 5.5 -0.3
v 0 5.6 -0.3
v 0.1 5.5 -0.3
v 0.1 5.6 -0.3
v 0.1 5.7 -0.3
v 0.2 5.5 -0.3
v 0.2 5.6 -0.3
v 0.2 5.7 -0.3
v 0.3 5.5 -0.3
v 0.3 5.6 -0.3
v 0.4 5.5 -0.3
v 0.4 5.8 -0.3
v 0.4 6.1 -0.3
v 0.4 6.2 -0.3
v -0.4 0.5 -0.4
v -0.4 5.5 -0.4
v -0.4 6.2 -0.4
v -0.4 7.7 -0.4
v -0.3 7.5 -0.4
v -0.3 7.7 -0.4
v -0.2 7.4 -0.4
v -0.2 7.5 -0.4
v -0.1 7.3 -0.4
v -0.1 7.4 -0.4
v 0 7.2 -0.4
v 0 7.3 -0.4
v 0.1 7.1 -0.4
v 0.1 7.2 -0.4
v 0.2 6.8 -0.4
v 0.2 7.1 -0.4
v 0.3 6.7 -0.4
v 0.3 6.8 -0.4
v 0.4 0.5 -0.4
v 0.4 5.5 -0.4
v 0.4 6.2 -0.4
v 0.4 6.7 -0.4
v -1.6 0 -1.6
v -1.6 0.5 -1.6
v 1.6 0 -1.6
v 1.6 0.5 -1.6
v -1.6 0 1.6
v 1.6 0 1.6
v -1.6 0 -1.6
v 1.6 0 -1.6
v 0.4 1.2 0.2
v 0.5 1.2 0.2
v 0.4 1.2 -0.2
v 0.5 1.2 -0.2
v 0.4 2.2 0.2
v 0.5 2.2 0.2
v 0.4 2.2 -0.2
v 0.5 2.2 -0.2
v 0.4 3.2 0.2
v 0.5 3.2 0.2
v 0.4 3.2 -0.2
v 0.5 3.2 -0.2
v -0.4 4.1 0.3
v -0.3 4.1 0.3
v -0.2 4.1 0.3
v 0.4 4.1 0.3
v -0.4 4.1 0.2
v -0.3 4.1 0.2
v -0.2 4.1 0.2
v 0.4 4.1 0.2
v -0.4 4.2 0.4
v 0.4 4.2 0.4
v -0.4 4.2 0.3
v -0.3 4.2 0.3
v -0.2 4.2 0.3
v 0.4 4.2 0.3
v 0.4 4.2 0.2
v 0.5 4.2 0.2
v 0.4 4.2 -0.2
v 0.5 4.2 -0.2
v 0.4 5.2 0.2
v 0.5 5.2 0.2
v 0.4 5.2 -0.2
v 0.5 5.2 -0.2
v -0.4 5.9 -0.1
v -0.2 5.9 -0.1
v -0.1 5.9 -0.1
v 0 5.9 -0.1
v 0.1 5.9 -0.1
v 0.2 5.9 -0.1
v 0.3 5.9 -0.1
v 0.4 5.9 -0.1
v -0.4 5.9 -0.2
v 0 5.9 -0.2
v 0.1 5.9 -0.2
v 0.4 5.9 -0.2
v -0.4 6.1 -0.2
v -0.3 6.1 -0.2
v -0.2 6.1 -0.2
v 0 6.1 -0.2
v 0.1 6.1 -0.2
v 0.4 6.1 -0.2
v -0.4 6.1 -0.3
v -0.3 6.1 -0.3
v -0.2 6.1 -0.3
v 0.4 6.1 -0.3
v 0.4 6.2 0.2
v 0.5 6.2 0.2
v 0.4 6.2 -0.2
v 0.5 6.2 -0.2
v -0.4 6.2 -0.3
v -0.3 6.2 -0.3
v -0.2 6.2 -0.3
v 0.4 6.2 -0.3
v -0.4 6.2 -0.4
v 0.4 6.2 -0.4
v -1.6 0.5 1.6
v 1.6 0.5 1.6
v -0.4 0.5 0.4
v 0.4 0.5 0.4
v 1.1 0.5 0.2
v 1.3 0.5 0.2
v 1.1 0.5 -0.2
v 1.3 0.5 -0.2
v -0.4 0.5 -0.4
v 0.4 0.5 -0.4
v -1.6 0.5 -1.6
v 1.6 0.5 -1.6
v 1.1 0.6 0.2
v 1.3 0.6 0.2
v 1.1 0.6 -0.2
v 1.3 0.6 -0.2
v 0.4 1.4 0.2
v 0.5 1.4 0.2
v 0.4 1.4 -0.2
v 0.5 1.4 -0.2
v 0.4 2.4 0.2
v 0.5 2.4 0.2
v 0.4 2.4 -0.2
v 0.5 2.4 -0.2
v 0.4 3.4 0.2
v 0.5 3.4 0.2
v 0.4 3.4 -0.2
v 0.5 3.4 -0.2
v -0.4 3.6 0.4
v 0.4 3.6 0.4
v -0.4 3.6 0.3
v -0.3 3.6 0.3
v -0.2 3.6 0.3
v -0.1 3.6 0.3
v 0.2 3.6 0.3
v 0.3 3.6 0.3
v 0.4 3.6 0.3
v -0.4 3.9 0.3
v 0.4 3.9 0.3
v -0.4 3.9 0.2
v 0.1 3.9 0.2
v 0.2 3.9 0.2
v 0.4 3.9 0.2
v 0.4 4.4 0.2
v 0.5 4.4 0.2
v 0.4 4.4 -0.2
v 0.5 4.4 -0.2
v 0.4 5.4 0.2
v 0.5 5.4 0.2
v 0.4 5.4 -0.2
v 0.5 5.4 -0.2
v -0.4 5.5 -0.3
v 0 5.5 -0.3
v 0.1 5.5 -0.3
v 0.2 5.5 -0.3
v 0.3 5.5 -0.3
v 0.4 5.5 -0.3
v -0.4 5.5 -0.4
v 0.4 5.5 -0.4
v -0.4 5.8 -0.1
v -0.2 5.8 -0.1
v -0.1 5.8 -0.1
v 0.2 5.8 -0.1
v 0.3 5.8 -0.1
v 0.4 5.8 -0.1
v -0.3 5.8 -0.2
v -0.2 5.8 -0.2
v -0.4 5.8 -0.3
v -0.3 5.8 -0.3
v -0.2 5.8 -0.3
v 0.4 5.8 -0.3
v 0.4 6.4 0.2
v 0.5 6.4 0.2
v 0.4 6.4 -0.2
v 0.5 6.4 -0.2
v -0.4 6.7 0.4
v 0.4 6.7 0.4
v -0.4 6.7 0.3
v 0.3 6.7 0.3
v 0.3 6.7 -0.4
v 0.4 6.7 -0.4
v 0.2 6.8 0.3
v 0.3 6.8 0.3
v 0.2 6.8 -0.4
v 0.3 6.8 -0.4
v -0.4 6.9 0.3
v 0.2 6.9 0.3
v -0.4 6.9 0.2
v 0.2 6.9 0.2
v -0.4 7 0.2
v 0.2 7 0.2
v -0.4 7 0.1
v 0.2 7 0.1
v -0.4 7.1 0.1
v 0.2 7.1 0.1
v -0.4 7.1 0
v 0.1 7.1 0
v 0.1 7.1 -0.4
v 0.2 7.1 -0.4
v -0.4 7.2 0
v 0.1 7.2 0
v -0.4 7.2 -0.1
v 0 7.2 -0.1
v 0 7.2 -0.4
v 0.1 7.2 -0.4
v -0.4 7.3 -0.1
v 0 7.3 -0.1
v -0.4 7.3 -0.3
v -0.1 7.3 -0.3
v -0.1 7.3 -0.4
v 0 7.3 -0.4
v -0.2 7.4 -0.3
v -0.1 7.4 -0.3
v -0.2 7.4 -0.4
v -0.1 7.4 -0.4
v -0.3 7.5 -0.3
v -0.2 7.5 -0.3
v -0.3 7.5 -0.4
v -0.2 7.5 -0.4
v -0.4 7.7 -0.3
v -0.3 7.7 -0.3
v -0.4 7.7 -0.4
v -0.3 7.7 -0.4

# faces
f 3/1/1 2/1/1 1/1/1
f 4/1/1 2/1/1 3/1/1
f 7/1/1 6/1/1 5/1/1
f 8/1/1 6/1/1 7/1/1
f 9/1/1 6/1/1 8/1/1
f 10/2/1 9/2/1 8/2/1
f 11/1/1 6/1/1 9/1/1
f 11/2/1 9/2/1 10/2/1
f 12/1/1 11/1/1 10/1/1
f 13/1/1 6/1/1 11/1/1
f 13/1/1 11/1/1 12/1/1
f 15/1/1 6/1/1 13/1/1
f 17/1/1 15/1/1 14/1/1
f 18/1/1 6/1/1 15/1/1
f 18/1/1 17/1/1 16/1/1
f 18/1/1 15/1/1 17/1/1
f 19/1/1 6/1/1 18/1/1
f 20/1/1 18/1/1 16/1/1
f 21/1/1 18/1/1 20/1/1
f 22/1/1 20/1/1 16/1/1
f 24/1/1 23/1/1 22/1/1
f 26/1/1 25/1/1 24/1/1
f 28/1/1 26/1/1 24/1/1
f 28/1/1 27/1/1 26/1/1
f 28/1/1 24/1/1 22/1/1
f 28/1/1 22/1/1 16/1/1
f 29/1/1 27/1/1 28/1/1
f 30/1/1 27/1/1 29/1/1
f 31/1/1 27/1/1 30/1/1
f 32/1/1 27/1/1 31/1/1
f 33/1/1 27/1/1 32/1/1
f 34/1/1 27/1/1 33/1/1
f 35/1/1 27/1/1 34/1/1
f 36/1/1 27/1/1 35/1/1
f 37/1/1 27/1/1 36/1/1
f 38/1/1 27/1/1 37/1/1
f 39/1/1 27/1/1 38/1/1
f 40/1/1 27/1/1 39/1/1
f 41/1/1 27/1/1 40/1/1
f 44/3/1 43/3/1 42/3/1
f 45/3/1 43/3/1 44/3/1
f 46/1/2 47/1/2 48/1/2
f 48/1/2 47/1/2 49/1/2
f 50/1/2 51/1/2 52/1/2
f 52/1/2 51/1/2 53/1/2
f 54/1/2 55/1/2 56/1/2
f 56/1/2 55/1/2 57/1/2
f 58/1/2 59/1/2 60/1/2
f 60/1/2 59/1/2 61/1/2
f 62/1/2 63/1/2 64/1/2
f 64/1/2 63/1/2 65/1/2
f 66/1/2 67/1/2 68/1/2
f 68/1/2 67/1/2 69/1/2
f 69/1/2 67/1/2 70/1/2
f 70/1/2 67/1/2 71/1/2
f 71/1/2 67/1/2 72/1/2
f 72/1/2 67/1/2 73/1/2
f 74/1/2 75/1/2 76/1/2
f 76/1/2 75/1/2 77/1/2
f 78/1/2 79/1/2 80/1/2
f 80/1/2 79/1/2 81/1/2
f 78/1/2 80/1/2 82/1/2
f 81/1/2 79/1/2 83/1/2
f 78/1/2 82/1/2 84/1/2
f 82/1/2 83/1/2 84/1/2
f 83/1/2 79/1/2 85/1/2
f 84/1/2 83/1/2 85/1/2
f 78/1/2 84/1/2 86/1/2
f 85/1/2 79/1/2 87/1/2
f 78/1/2 86/1/2 88/1/2
f 86/1/2 87/1/2 88/1/2
f 87/1/2 79/1/2 89/1/2
f 88/1/2 87/1/2 89/1/2
f 78/1/2 88/1/2 90/1/2
f 89/1/2 79/1/2 91/1/2
f 78/1/2 90/1/2 92/1/2
f 90/1/2 91/1/2 92/1/2
f 92/1/2 91/1/2 93/1/2
f 93/1/2 91/1/2 94/1/2
f 94/1/2 91/1/2 95/1/2
f 95/1/2 91/1/2 97/1/2
f 96/1/2 97/1/2 99/1/2
f 97/1/2 91/1/2 100/1/2
f 99/1/2 97/1/2 100/1/2
f 91/1/2 79/1/2 101/1/2
f 100/1/2 91/1/2 101/1/2
f 99/1/2 100/1/2 102/1/2
f 98/1/2 99/1/2 102/1/2
f 101/1/2 79/1/2 103/1/2
f 98/1/2 102/1/2 104/1/2
f 102/1/2 103/1/2 104/1/2
f 103/1/2 79/1/2 105/1/2
f 104/1/2 103/1/2 105/1/2
f 98/1/2 104/1/2 106/1/2
f 105/1/2 79/1/2 107/1/2
f 107/1/2 79/1/2 108/1/2
f 106/1/2 107/1/2 108/1/2
f 108/1/2 79/1/2 109/1/2
f 106/1/2 108/1/2 110/1/2
f 110/1/2 108/1/2 111/1/2
f 106/1/2 110/1/2 112/1/2
f 112/1/2 113/1/2 114/1/2
f 98/1/2 106/1/2 116/1/2
f 114/1/2 115/1/2 116/1/2
f 112/1/2 114/1/2 116/1/2
f 106/1/2 112/1/2 116/1/2
f 116/1/2 115/1/2 117/1/2
f 117/1/2 115/1/2 118/1/2
f 98/1/2 116/1/2 120/1/2
f 117/1/2 118/1/2 121/1/2
f 118/1/2 119/1/2 121/1/2
f 98/1/2 120/1/2 122/1/2
f 120/1/2 121/1/2 122/1/2
f 121/1/2 119/1/2 123/1/2
f 122/1/2 121/1/2 123/1/2
f 124/3/2 125/3/2 126/3/2
f 126/3/2 125/3/2 127/3/2
f 128/3/2 129/3/2 130/3/2
f 130/3/2 129/3/2 131/3/2
f 132/3/2 133/3/2 134/3/2
f 134/3/2 133/3/2 135/3/2
f 136/3/2 137/3/2 138/3/2
f 138/3/2 137/3/2 139/3/2
f 140/3/2 141/3/2 142/3/2
f 142/3/2 141/3/2 143/3/2
f 144/3/2 145/3/2 146/3/2
f 146/3/2 145/3/2 147/3/2
f 148/3/2 149/3/2 150/3/2
f 150/3/2 149/3/2 151/3/2
f 152/1/2 153/1/2 154/1/2
f 154/1/2 153/1/2 155/1/2
f 158/1/3 157/1/3 156/1/3
f 159/1/3 157/1/3 158/1/3
f 164/1/3 161/1/3 160/1/3
f 165/1/3 161/1/3 164/1/3
f 166/1/3 163/1/3 162/1/3
f 167/1/3 163/1/3 166/1/3
f 175/2/3 169/2/3 168/2/3
f 176/1/3 170/1/3 169/1/3
f 176/2/3 169/2/3 175/2/3
f 177/1/3 170/1/3 176/1/3
f 178/1/3 172/1/3 171/1/3
f 179/1/3 172/1/3 178/1/3
f 180/1/3 176/1/3 175/1/3
f 181/2/3 177/2/3 176/2/3
f 181/1/3 176/1/3 180/1/3
f 182/1/3 170/1/3 177/1/3
f 182/2/3 177/2/3 181/2/3
f 183/2/3 179/2/3 178/2/3
f 184/2/3 179/2/3 183/2/3
f 185/2/3 181/2/3 180/2/3
f 186/1/3 182/1/3 181/1/3
f 186/2/3 181/2/3 185/2/3
f 187/1/3 186/1/3 185/1/3
f 188/1/3 170/1/3 182/1/3
f 188/1/3 186/1/3 187/1/3
f 188/1/3 182/1/3 186/1/3
f 189/1/3 174/1/3 173/1/3
f 190/1/3 174/1/3 189/1/3
f 191/2/3 188/2/3 187/2/3
f 192/1/3 170/1/3 188/1/3
f 192/2/3 188/2/3 191/2/3
f 193/1/3 189/1/3 173/1/3
f 194/1/3 189/1/3 193/1/3
f 195/1/3 192/1/3 191/1/3
f 196/1/3 170/1/3 192/1/3
f 196/1/3 192/1/3 195/1/3
f 197/1/3 184/1/3 183/1/3
f 198/1/3 184/1/3 197/1/3
f 203/1/3 200/1/3 199/1/3
f 204/1/3 200/1/3 203/1/3
f 205/1/3 203/1/3 199/1/3
f 205/2/3 204/2/3 203/2/3
f 206/2/3 204/2/3 205/2/3
f 207/1/3 205/1/3 199/1/3
f 207/1/3 206/1/3 205/1/3
f 208/1/3 206/1/3 207/1/3
f 209/2/3 208/2/3 207/2/3
f 210/1/3 206/1/3 208/1/3
f 210/2/3 208/2/3 209/2/3
f 211/1/3 202/1/3 201/1/3
f 212/1/3 202/1/3 211/1/3
f 219/1/3 210/1/3 209/1/3
f 220/1/3 206/1/3 210/1/3
f 220/1/3 210/1/3 219/1/3
f 227/3/3 214/3/3 213/3/3
f 228/3/3 214/3/3 227/3/3
f 229/3/3 216/3/3 215/3/3
f 230/3/3 216/3/3 229/3/3
f 231/3/3 218/3/3 217/3/3
f 232/3/3 218/3/3 231/3/3
f 233/3/3 222/3/3 221/3/3
f 234/3/3 222/3/3 233/3/3
f 235/3/3 224/3/3 223/3/3
f 236/3/3 224/3/3 235/3/3
f 237/3/3 226/3/3 225/3/3
f 238/3/3 226/3/3 237/3/3
f 241/3/3 240/3/3 239/3/3
f 242/3/3 240/3/3 241/3/3
f 245/1/3 244/1/3 243/1/3
f 246/1/3 244/1/3 245/1/3
f 249/1/3 248/1/3 247/1/3
f 250/1/3 248/1/3 249/1/3
f 253/1/3 252/1/3 251/1/3
f 254/1/3 252/1/3 253/1/3
f 257/1/3 256/1/3 255/1/3
f 258/1/3 256/1/3 257/1/3
f 259/1/3 257/1/3 255/1/3
f 260/1/3 257/1/3 259/1/3
f 261/1/3 259/1/3 255/1/3
f 262/1/3 259/1/3 261/1/3
f 263/1/4 264/1/4 265/1/4
f 265/1/4 264/1/4 266/1/4
f 265/2/4 266/2/4 267/2/4
f 267/2/4 266/2/4 268/2/4
f 267/1/4 268/1/4 269/1/4
f 267/1/4 269/1/4 270/1/4
f 267/1/4 270/1/4 271/1/4
f 271/1/4 270/1/4 272/1/4
f 271/2/4 272/2/4 273/2/4
f 273/2/4 272/2/4 274/2/4
f 273/1/4 274/1/4 275/1/4
f 275/1/4 274/1/4 276/1/4
f 277/1/4 278/1/4 279/1/4
f 277/1/4 279/1/4 280/1/4
f 277/1/4 280/1/4 281/1/4
f 281/1/4 280/1/4 282/1/4
f 281/2/4 282/2/4 283/2/4
f 283/2/4 282/2/4 284/2/4
f 283/1/4 284/1/4 295/1/4
f 295/1/4 284/1/4 296/1/4
f 285/3/4 286/3/4 299/3/4
f 299/3/4 286/3/4 300/3/4
f 287/3/4 288/3/4 301/3/4
f 301/3/4 288/3/4 302/3/4
f 289/3/4 290/3/4 303/3/4
f 303/3/4 290/3/4 304/3/4
f 291/3/4 292/3/4 305/3/4
f 305/3/4 292/3/4 306/3/4
f 293/3/4 294/3/4 307/3/4
f 307/3/4 294/3/4 308/3/4
f 297/3/4 298/3/4 309/3/4
f 309/3/4 298/3/4 310/3/4
f 311/3/4 312/3/4 313/3/4
f 313/3/4 312/3/4 314/3/4
f 315/1/4 316/1/4 319/1/4
f 319/1/4 316/1/4 320/1/4
f 317/1/4 318/1/4 321/1/4
f 321/1/4 318/1/4 322/1/4
f 319/2/4 320/2/4 323/2/4
f 315/1/4 319/1/4 323/1/4
f 323/2/4 320/2/4 324/2/4
f 321/2/4 322/2/4 325/2/4
f 325/2/4 322/2/4 326/2/4
f 323/1/4 324/1/4 327/1/4
f 315/1/4 323/1/4 327/1/4
f 327/1/4 324/1/4 328/1/4
f 327/2/4 328/2/4 329/2/4
f 328/1/4 324/1/4 330/1/4
f 329/2/4 328/2/4 330/2/4
f 330/1/4 324/1/4 331/1/4
f 329/1/4 330/1/4 332/1/4
f 330/2/4 331/2/4 333/2/4
f 332/1/4 330/1/4 333/1/4
f 331/1/4 324/1/4 334/1/4
f 333/2/4 331/2/4 334/2/4
f 332/2/4 333/2/4 335/2/4
f 333/1/4 334/1/4 336/1/4
f 335/2/4 333/2/4 336/2/4
f 335/1/4 336/1/4 337/1/4
f 334/1/4 324/1/4 338/1/4
f 337/1/4 336/1/4 338/1/4
f 336/1/4 334/1/4 338/1/4
f 325/1/4 326/1/4 339/1/4
f 339/1/4 326/1/4 340/1/4
f 343/1/4 344/1/4 345/1/4
f 345/1/4 344/1/4 346/1/4
f 343/1/4 345/1/4 347/1/4
f 347/1/4 345/1/4 348/1/4
f 343/1/4 347/1/4 349/1/4
f 349/1/4 347/1/4 350/1/4
f 343/1/4 349/1/4 351/1/4
f 351/1/4 349/1/4 352/1/4
f 343/1/4 351/1/4 353/1/4
f 353/1/4 351/1/4 354/1/4
f 343/1/4 353/1/4 355/1/4
f 355/1/4 353/1/4 356/1/4
f 343/1/4 355/1/4 357/1/4
f 357/1/4 355/1/4 358/1/4
f 341/1/4 342/1/4 359/1/4
f 359/1/4 342/1/4 360/1/4
f 343/1/4 357/1/4 361/1/4
f 361/1/4 357/1/4 362/1/4
f 363/1/4 364/1/4 365/1/4
f 365/1/4 364/1/4 366/1/4
f 369/1/5 368/1/5 367/1/5
f 370/1/5 368/1/5 369/1/5
f 373/3/5 372/3/5 371/3/5
f 374/3/5 372/3/5 373/3/5
f 377/3/5 376/3/5 375/3/5
f 378/3/5 376/3/5 377/3/5
f 381/3/5 380/3/5 379/3/5
f 382/3/5 380/3/5 381/3/5
f 387/1/5 384/1/5 383/1/5
f 388/2/5 385/2/5 384/2/5
f 388/1/5 384/1/5 387/1/5
f 389/1/5 386/1/5 385/1/5
f 389/2/5 385/2/5 388/2/5
f 390/1/5 386/1/5 389/1/5
f 393/1/5 392/1/5 391/1/5
f 394/1/5 392/1/5 393/1/5
f 395/1/5 392/1/5 394/1/5
f 396/1/5 392/1/5 395/1/5
f 399/3/5 398/3/5 397/3/5
f 400/3/5 398/3/5 399/3/5
f 403/3/5 402/3/5 401/3/5
f 404/3/5 402/3/5 403/3/5
f 413/1/5 406/1/5 405/1/5
f 413/1/5 407/1/5 406/1/5
f 413/1/5 408/1/5 407/1/5
f 414/2/5 409/2/5 408/2/5
f 414/1/5 408/1/5 413/1/5
f 415/1/5 412/1/5 411/1/5
f 415/2/5 409/2/5 414/2/5
f 415/1/5 411/1/5 410/1/5
f 415/1/5 410/1/5 409/1/5
f 416/1/5 412/1/5 415/1/5
f 423/1/5 418/1/5 417/1/5
f 424/2/5 419/2/5 418/2/5
f 424/1/5 418/1/5 423/1/5
f 425/1/5 422/1/5 421/1/5
f 425/2/5 419/2/5 424/2/5
f 425/1/5 420/1/5 419/1/5
f 425/1/5 421/1/5 420/1/5
f 426/1/5 422/1/5 425/1/5
f 429/3/5 428/3/5 427/3/5
f 430/3/5 428/3/5 429/3/5
f 435/1/5 432/1/5 431/1/5
f 435/1/5 434/1/5 433/1/5
f 435/1/5 433/1/5 432/1/5
f 436/1/5 434/1/5 435/1/5
f 437/1/6 438/1/6 439/1/6
f 439/1/6 438/1/6 440/1/6
f 440/1/6 438/1/6 441/1/6
f 441/1/6 438/1/6 442/1/6
f 440/1/6 441/1/6 443/1/6
f 442/1/6 438/1/6 444/1/6
f 437/1/6 439/1/6 445/1/6
f 443/1/6 444/1/6 446/1/6
f 440/1/6 443/1/6 446/1/6
f 437/1/6 445/1/6 447/1/6
f 445/1/6 446/1/6 447/1/6
f 446/1/6 444/1/6 448/1/6
f 447/1/6 446/1/6 448/1/6
f 444/1/6 438/1/6 448/1/6
f 449/3/6 450/3/6 451/3/6
f 451/3/6 450/3/6 452/3/6
f 453/3/6 454/3/6 455/3/6
f 455/3/6 454/3/6 456/3/6
f 457/3/6 458/3/6 459/3/6
f 459/3/6 458/3/6 460/3/6
f 461/3/6 462/3/6 463/3/6
f 463/3/6 462/3/6 464/3/6
f 465/1/6 466/1/6 467/1/6
f 467/1/6 466/1/6 468/1/6
f 468/1/6 466/1/6 469/1/6
f 469/1/6 466/1/6 470/1/6
f 470/1/6 466/1/6 471/1/6
f 471/1/6 466/1/6 472/1/6
f 472/1/6 466/1/6 473/1/6
f 474/1/6 475/1/6 476/1/6
f 476/1/6 475/1/6 477/1/6
f 477/1/6 475/1/6 478/1/6
f 478/1/6 475/1/6 479/1/6
f 480/3/6 481/3/6 482/3/6
f 482/3/6 481/3/6 483/3/6
f 484/3/6 485/3/6 486/3/6
f 486/3/6 485/3/6 487/3/6
f 488/1/6 489/1/6 494/1/6
f 492/1/6 493/1/6 494/1/6
f 491/1/6 492/1/6 494/1/6
f 490/1/6 491/1/6 494/1/6
f 489/1/6 490/1/6 494/1/6
f 494/1/6 493/1/6 495/1/6
f 496/1/6 497/1/6 502/1/6
f 500/1/6 501/1/6 502/1/6
f 499/1/6 500/1/6 502/1/6
f 498/1/6 499/1/6 502/1/6
f 497/1/6 498/1/6 502/1/6
f 502/1/6 501/1/6 503/1/6
f 496/1/6 502/1/6 504/1/6
f 502/2/6 503/2/6 505/2/6
f 504/1/6 502/1/6 505/1/6
f 503/1/6 501/1/6 506/1/6
f 505/2/6 503/2/6 506/2/6
f 506/1/6 501/1/6 507/1/6
f 508/3/6 509/3/6 510/3/6
f 510/3/6 509/3/6 511/3/6
f 512/1/6 513/1/6 514/1/6
f 514/1/6 513/1/6 515/1/6
f 515/1/6 513/1/6 516/1/6
f 516/1/6 513/1/6 517/1/6
f 518/1/6 519/1/6 520/1/6
f 520/1/6 519/1/6 521/1/6
f 522/1/6 523/1/6 524/1/6
f 524/1/6 523/1/6 525/1/6
f 526/1/6 527/1/6 528/1/6
f 528/1/6 527/1/6 529/1/6
f 530/1/6 531/1/6 532/1/6
f 532/1/6 531/1/6 533/1/6
f 533/1/6 531/1/6 534/1/6
f 534/1/6 531/1/6 535/1/6
f 536/1/6 537/1/6 538/1/6
f 538/1/6 537/1/6 539/1/6
f 539/1/6 537/1/6 540/1/6
f 540/1/6 537/1/6 541/1/6
f 542/1/6 543/1/6 544/1/6
f 544/1/6 543/1/6 545/1/6
f 545/1/6 543/1/6 546/1/6
f 546/1/6 543/1/6 547/1/6
f 548/1/6 549/1/6 550/1/6
f 550/1/6 549/1/6 551/1/6
f 552/1/6 553/1/6 554/1/6
f 554/1/6 553/1/6 555/1/6
f 556/1/6 557/1/6 558/1/6
f 558/1/6 557/1/6 559/1/6
