# MagicaVoxel @ Ephtracy

# group
o 

# material
mtllib Portal_3.4.1.mtl
usemtl palette

# normals
vn -1 0 0
vn 1 0 0
vn 0 0 1
vn 0 0 -1
vn 0 -1 0
vn 0 1 0

# texcoords
vt 0.951172 0.5
vt 0.970703 0.5
vt 0.974609 0.5

# verts
v -1.2 0 -0.1
v -1.2 0 -1.6
v -1.2 0.2 -0.1
v -1.2 0.2 -1.6
v -1 0.2 -0.3
v -1 0.2 -1.4
v -1 0.4 -0.3
v -1 0.4 -1.4
v -1 1.5 -0.3
v -1 1.5 -1.4
v -1 1.6 -0.3
v -1 1.6 -1.4
v -0.9 1.4 -0.4
v -0.9 1.4 -1.3
v -0.9 1.5 -0.4
v -0.9 1.5 -1.3
v -0.7 0.4 -0.6
v -0.7 0.4 -0.8
v -0.7 0.4 -0.9
v -0.7 0.4 -1.1
v -0.7 0.7 -0.7
v -0.7 0.7 -0.8
v -0.7 0.7 -0.9
v -0.7 0.9 -0.7
v -0.7 0.9 -0.8
v -0.7 0.9 -0.9
v -0.7 1 -0.8
v -0.7 1 -0.9
v -0.7 1.4 -0.6
v -0.7 1.4 -1.1
v -0.8 1.5 -0.7
v -0.8 1.5 -1
v -0.8 1.6 -0.7
v -0.8 1.6 -1
v -0.7 1.4 -0.7
v -0.7 1.4 -1
v -0.7 1.5 -0.6
v -0.7 1.5 -0.7
v -0.7 1.5 -1
v -0.7 1.5 -1.1
v -0.7 1.6 -0.6
v -0.7 1.6 -0.7
v -0.7 1.6 -1
v -0.7 1.6 -1.1
v -0.6 1.4 -0.6
v -0.6 1.4 -0.7
v -0.6 1.4 -1
v -0.6 1.4 -1.1
v -0.6 1.5 -0.5
v -0.6 1.5 -0.6
v -0.6 1.5 -0.7
v -0.6 1.5 -1
v -0.6 1.5 -1.1
v -0.6 1.5 -1.2
v -0.6 1.6 -0.5
v -0.6 1.6 -0.6
v -0.6 1.6 -1.1
v -0.6 1.6 -1.2
v -0.5 1.5 -0.3
v -0.5 1.5 -0.4
v -0.5 1.5 -0.5
v -0.5 1.5 -1.2
v -0.5 1.5 -1.3
v -0.5 1.5 -1.4
v -0.5 1.6 -0.3
v -0.5 1.6 -0.5
v -0.5 1.6 -1.2
v -0.5 1.6 -1.4
v -0.4 1.1 -0.6
v -0.4 1.1 -0.7
v -0.4 1.1 -1
v -0.4 1.1 -1.1
v -0.4 1.3 -0.7
v -0.4 1.3 -1
v -0.4 1.4 -0.4
v -0.4 1.4 -0.6
v -0.4 1.4 -0.7
v -0.4 1.4 -1
v -0.4 1.4 -1.1
v -0.4 1.4 -1.3
v -0.4 1.5 -0.4
v -0.4 1.5 -0.6
v -0.4 1.5 -1.1
v -0.4 1.5 -1.3
v -0.3 1 -0.6
v -0.3 1 -0.7
v -0.3 1 -1
v -0.3 1 -1.1
v -0.3 1.1 -0.6
v -0.3 1.1 -0.7
v -0.3 1.1 -1
v -0.3 1.1 -1.1
v -0.3 1.3 -0.7
v -0.3 1.3 -1
v -0.2 0.4 -0.6
v -0.2 0.4 -0.7
v -0.2 0.4 -1
v -0.2 0.4 -1.1
v -0.2 0.7 -0.6
v -0.2 0.7 -0.7
v -0.2 0.8 -0.6
v -0.2 0.8 -0.7
v -0.2 1 -0.6
v -0.2 1 -0.7
v -0.2 1 -1
v -0.2 1 -1.1
v -0.2 1.1 -0.7
v -0.2 1.1 -1
v -0.0999999 0.5 -0.7
v -0.0999999 0.5 -1
v -0.0999999 1 -0.7
v -0.0999999 1 -1
v 0.1 0.2 -0.3
v 0.1 0.2 -0.7
v 0.1 0.2 -1
v 0.1 0.2 -1.4
v 0.1 0.4 -0.3
v 0.1 0.4 -0.7
v 0.1 0.4 -1
v 0.1 0.4 -1.4
v 0.1 0.5 -0.7
v 0.1 0.5 -1
v 0.2 0.3 -0.7
v 0.2 0.3 -1
v 0.2 0.4 -0.7
v 0.2 0.4 -1
v 0.3 0 -0.1
v 0.3 0 -0.5
v 0.3 0 -1.2
v 0.3 0 -1.6
v 0.3 0.1 -0.5
v 0.3 0.1 -0.7
v 0.3 0.1 -1
v 0.3 0.1 -1.2
v 0.3 0.2 -0.1
v 0.3 0.2 -0.7
v 0.3 0.2 -1
v 0.3 0.2 -1.6
v 0.3 0.3 -0.7
v 0.3 0.3 -1
v 0.4 0 -0.5
v 0.4 0 -0.6
v 0.4 0 -1.1
v 0.4 0 -1.2
v 0.4 0.1 -0.5
v 0.4 0.1 -0.6
v 0.4 0.1 -0.7
v 0.4 0.1 -1
v 0.4 0.1 -1.1
v 0.4 0.1 -1.2
v 0.4 0.2 -0.7
v 0.4 0.2 -1
v 0.6 0 -0.6
v 0.6 0 -0.7
v 0.6 0 -1
v 0.6 0 -1.1
v 0.6 0.1 -0.6
v 0.6 0.1 -0.7
v 0.6 0.1 -1
v 0.6 0.1 -1.1
v 0.7 0 -0.7
v 0.7 0 -1
v 0.7 0.1 -0.7
v 0.7 0.1 -1
v -1.2 0 -0.1
v -1.2 0.2 -0.1
v 0.3 0 -0.1
v 0.3 0.2 -0.1
v -1 0.2 -0.3
v -1 0.4 -0.3
v -1 1.5 -0.3
v -1 1.6 -0.3
v -0.5 1.5 -0.3
v -0.5 1.6 -0.3
v 0.1 0.2 -0.3
v 0.1 0.4 -0.3
v -0.9 1.4 -0.4
v -0.9 1.5 -0.4
v -0.5 1.5 -0.4
v -0.4 1.4 -0.4
v -0.4 1.5 -0.4
v 0.3 0 -0.5
v 0.3 0.1 -0.5
v 0.4 0 -0.5
v 0.4 0.1 -0.5
v -0.7 0.4 -0.6
v -0.7 1.4 -0.6
v -0.6 0.8 -0.6
v -0.6 1 -0.6
v -0.5 0.8 -0.6
v -0.5 1 -0.6
v -0.5 1.1 -0.6
v -0.4 0.4 -0.6
v -0.4 0.7 -0.6
v -0.4 1 -0.6
v -0.4 1.1 -0.6
v -0.4 1.4 -0.6
v -0.3 0.4 -0.6
v -0.3 0.7 -0.6
v -0.3 0.8 -0.6
v -0.3 1 -0.6
v -0.3 1.1 -0.6
v -0.2 0.4 -0.6
v -0.2 0.7 -0.6
v -0.2 0.8 -0.6
v -0.2 1 -0.6
v 0.4 0 -0.6
v 0.4 0.1 -0.6
v 0.6 0 -0.6
v 0.6 0.1 -0.6
v -0.4 1.1 -0.7
v -0.4 1.3 -0.7
v -0.3 1 -0.7
v -0.3 1.1 -0.7
v -0.3 1.3 -0.7
v -0.2 0.4 -0.7
v -0.2 0.7 -0.7
v -0.2 0.8 -0.7
v -0.2 1 -0.7
v -0.2 1.1 -0.7
v -0.0999999 0.5 -0.7
v -0.0999999 1 -0.7
v 0.1 0.2 -0.7
v 0.1 0.4 -0.7
v 0.1 0.5 -0.7
v 0.2 0.3 -0.7
v 0.2 0.4 -0.7
v 0.3 0.1 -0.7
v 0.3 0.2 -0.7
v 0.3 0.3 -0.7
v 0.4 0.1 -0.7
v 0.4 0.2 -0.7
v 0.6 0 -0.7
v 0.6 0.1 -0.7
v 0.7 0 -0.7
v 0.7 0.1 -0.7
v -0.8 1.5 -1
v -0.8 1.6 -1
v -0.7 1.4 -1
v -0.7 1.5 -1
v -0.7 1.6 -1
v -0.6 1.4 -1
v -0.6 1.5 -1
v -0.7 1.5 -1.1
v -0.7 1.6 -1.1
v -0.6 1.4 -1.1
v -0.6 1.5 -1.1
v -0.6 1.6 -1.1
v -0.4 1.4 -1.1
v -0.4 1.5 -1.1
v -0.6 1.5 -1.2
v -0.6 1.6 -1.2
v -0.5 1.5 -1.2
v -0.5 1.6 -1.2
v -0.6 1.5 -0.5
v -0.6 1.6 -0.5
v -0.5 1.5 -0.5
v -0.5 1.6 -0.5
v -0.7 1.5 -0.6
v -0.7 1.6 -0.6
v -0.6 1.4 -0.6
v -0.6 1.5 -0.6
v -0.6 1.6 -0.6
v -0.4 1.4 -0.6
v -0.4 1.5 -0.6
v -0.8 1.5 -0.7
v -0.8 1.6 -0.7
v -0.7 1.4 -0.7
v -0.7 1.5 -0.7
v -0.7 1.6 -0.7
v -0.6 1.4 -0.7
v -0.6 1.5 -0.7
v -0.4 1.1 -1
v -0.4 1.3 -1
v -0.3 1 -1
v -0.3 1.1 -1
v -0.3 1.3 -1
v -0.2 0.4 -1
v -0.2 1 -1
v -0.2 1.1 -1
v -0.0999999 0.5 -1
v -0.0999999 1 -1
v 0.1 0.2 -1
v 0.1 0.4 -1
v 0.1 0.5 -1
v 0.2 0.3 -1
v 0.2 0.4 -1
v 0.3 0.1 -1
v 0.3 0.2 -1
v 0.3 0.3 -1
v 0.4 0.1 -1
v 0.4 0.2 -1
v 0.6 0 -1
v 0.6 0.1 -1
v 0.7 0 -1
v 0.7 0.1 -1
v -0.7 0.4 -1.1
v -0.7 1.4 -1.1
v -0.4 1.1 -1.1
v -0.4 1.4 -1.1
v -0.3 1 -1.1
v -0.3 1.1 -1.1
v -0.2 0.4 -1.1
v -0.2 1 -1.1
v 0.4 0 -1.1
v 0.4 0.1 -1.1
v 0.6 0 -1.1
v 0.6 0.1 -1.1
v 0.3 0 -1.2
v 0.3 0.1 -1.2
v 0.4 0 -1.2
v 0.4 0.1 -1.2
v -0.9 1.4 -1.3
v -0.9 1.5 -1.3
v -0.5 1.5 -1.3
v -0.4 1.4 -1.3
v -0.4 1.5 -1.3
v -1 0.2 -1.4
v -1 0.4 -1.4
v -1 1.5 -1.4
v -1 1.6 -1.4
v -0.5 1.5 -1.4
v -0.5 1.6 -1.4
v 0.1 0.2 -1.4
v 0.1 0.4 -1.4
v -1.2 0 -1.6
v -1.2 0.2 -1.6
v 0.3 0 -1.6
v 0.3 0.2 -1.6
v -1.2 0 -0.1
v 0.3 0 -0.1
v 0.3 0 -0.5
v 0.4 0 -0.5
v 0.4 0 -0.6
v 0.6 0 -0.6
v 0.6 0 -0.7
v 0.7 0 -0.7
v 0.6 0 -1
v 0.7 0 -1
v 0.4 0 -1.1
v 0.6 0 -1.1
v 0.3 0 -1.2
v 0.4 0 -1.2
v -1.2 0 -1.6
v 0.3 0 -1.6
v -0.9 1.4 -0.4
v -0.4 1.4 -0.4
v -0.7 1.4 -0.6
v -0.4 1.4 -0.6
v -0.7 1.4 -1.1
v -0.4 1.4 -1.1
v -0.9 1.4 -1.3
v -0.4 1.4 -1.3
v -1 1.5 -0.3
v -0.5 1.5 -0.3
v -0.9 1.5 -0.4
v -0.5 1.5 -0.4
v -0.9 1.5 -1.3
v -0.5 1.5 -1.3
v -1 1.5 -1.4
v -0.5 1.5 -1.4
v 0.3 0.1 -0.5
v 0.4 0.1 -0.5
v 0.4 0.1 -0.6
v 0.6 0.1 -0.6
v 0.3 0.1 -0.7
v 0.4 0.1 -0.7
v 0.6 0.1 -0.7
v 0.7 0.1 -0.7
v 0.3 0.1 -1
v 0.4 0.1 -1
v 0.6 0.1 -1
v 0.7 0.1 -1
v 0.4 0.1 -1.1
v 0.6 0.1 -1.1
v 0.3 0.1 -1.2
v 0.4 0.1 -1.2
v -1.2 0.2 -0.1
v 0.3 0.2 -0.1
v -1 0.2 -0.3
v 0.1 0.2 -0.3
v 0.1 0.2 -0.7
v 0.3 0.2 -0.7
v 0.4 0.2 -0.7
v 0.1 0.2 -1
v 0.3 0.2 -1
v 0.4 0.2 -1
v -1 0.2 -1.4
v 0.1 0.2 -1.4
v -1.2 0.2 -1.6
v 0.3 0.2 -1.6
v 0.2 0.3 -0.7
v 0.3 0.3 -0.7
v 0.2 0.3 -1
v 0.3 0.3 -1
v -1 0.4 -0.3
v 0.1 0.4 -0.3
v -0.7 0.4 -0.6
v -0.4 0.4 -0.6
v -0.3 0.4 -0.6
v -0.2 0.4 -0.6
v -0.2 0.4 -0.7
v 0.1 0.4 -0.7
v 0.2 0.4 -0.7
v -0.7 0.4 -0.8
v -0.7 0.4 -0.9
v -0.2 0.4 -1
v 0.1 0.4 -1
v 0.2 0.4 -1
v -0.7 0.4 -1.1
v -0.2 0.4 -1.1
v -1 0.4 -1.4
v 0.1 0.4 -1.4
v -0.0999999 0.5 -0.7
v 0.1 0.5 -0.7
v -0.0999999 0.5 -1
v 0.1 0.5 -1
v -0.3 1 -0.6
v -0.2 1 -0.6
v -0.3 1 -0.7
v -0.2 1 -0.7
v -0.0999999 1 -0.7
v -0.3 1 -1
v -0.2 1 -1
v -0.0999999 1 -1
v -0.3 1 -1.1
v -0.2 1 -1.1
v -0.4 1.1 -0.6
v -0.3 1.1 -0.6
v -0.4 1.1 -0.7
v -0.3 1.1 -0.7
v -0.2 1.1 -0.7
v -0.4 1.1 -1
v -0.3 1.1 -1
v -0.2 1.1 -1
v -0.4 1.1 -1.1
v -0.3 1.1 -1.1
v -0.4 1.3 -0.7
v -0.3 1.3 -0.7
v -0.4 1.3 -1
v -0.3 1.3 -1
v -0.6 1.4 -0.6
v -0.4 1.4 -0.6
v -0.7 1.4 -0.7
v -0.6 1.4 -0.7
v -0.4 1.4 -0.7
v -0.7 1.4 -1
v -0.6 1.4 -1
v -0.4 1.4 -1
v -0.6 1.4 -1.1
v -0.4 1.4 -1.1
v -0.5 1.5 -0.4
v -0.4 1.5 -0.4
v -0.6 1.5 -0.5
v -0.5 1.5 -0.5
v -0.7 1.5 -0.6
v -0.6 1.5 -0.6
v -0.4 1.5 -0.6
v -0.8 1.5 -0.7
v -0.7 1.5 -0.7
v -0.6 1.5 -0.7
v -0.8 1.5 -1
v -0.7 1.5 -1
v -0.6 1.5 -1
v -0.7 1.5 -1.1
v -0.6 1.5 -1.1
v -0.4 1.5 -1.1
v -0.6 1.5 -1.2
v -0.5 1.5 -1.2
v -0.5 1.5 -1.3
v -0.4 1.5 -1.3
v -1 1.6 -0.3
v -0.5 1.6 -0.3
v -0.6 1.6 -0.5
v -0.5 1.6 -0.5
v -0.7 1.6 -0.6
v -0.6 1.6 -0.6
v -0.8 1.6 -0.7
v -0.7 1.6 -0.7
v -0.8 1.6 -1
v -0.7 1.6 -1
v -0.7 1.6 -1.1
v -0.6 1.6 -1.1
v -0.6 1.6 -1.2
v -0.5 1.6 -1.2
v -1 1.6 -1.4
v -0.5 1.6 -1.4

# faces
f 3/2/1 2/2/1 1/2/1
f 4/2/1 2/2/1 3/2/1
f 7/2/1 6/2/1 5/2/1
f 8/2/1 6/2/1 7/2/1
f 11/2/1 10/2/1 9/2/1
f 12/2/1 10/2/1 11/2/1
f 15/2/1 14/2/1 13/2/1
f 16/2/1 14/2/1 15/2/1
f 21/2/1 18/2/1 17/2/1
f 22/3/1 19/3/1 18/3/1
f 22/2/1 18/2/1 21/2/1
f 23/2/1 20/2/1 19/2/1
f 23/3/1 19/3/1 22/3/1
f 24/3/1 22/3/1 21/3/1
f 24/2/1 21/2/1 17/2/1
f 25/2/1 23/2/1 22/2/1
f 25/3/1 22/3/1 24/3/1
f 26/2/1 20/2/1 23/2/1
f 26/2/1 23/2/1 25/2/1
f 27/2/1 25/2/1 24/2/1
f 27/3/1 26/3/1 25/3/1
f 28/2/1 20/2/1 26/2/1
f 28/3/1 26/3/1 27/3/1
f 29/2/1 27/2/1 24/2/1
f 29/2/1 24/2/1 17/2/1
f 29/2/1 28/2/1 27/2/1
f 30/2/1 20/2/1 28/2/1
f 30/2/1 28/2/1 29/2/1
f 31/2/2 32/2/2 33/2/2
f 33/2/2 32/2/2 34/2/2
f 35/2/2 36/2/2 38/2/2
f 38/2/2 36/2/2 39/2/2
f 37/2/2 38/2/2 41/2/2
f 41/2/2 38/2/2 42/2/2
f 39/2/2 40/2/2 43/2/2
f 43/2/2 40/2/2 44/2/2
f 45/2/2 46/2/2 50/2/2
f 50/2/2 46/2/2 51/2/2
f 47/2/2 48/2/2 52/2/2
f 52/2/2 48/2/2 53/2/2
f 49/2/2 50/2/2 55/2/2
f 55/2/2 50/2/2 56/2/2
f 53/2/2 54/2/2 57/2/2
f 57/2/2 54/2/2 58/2/2
f 59/2/2 60/2/2 65/2/2
f 60/2/2 61/2/2 65/2/2
f 65/2/2 61/2/2 66/2/2
f 63/2/2 64/2/2 67/2/2
f 62/2/2 63/2/2 67/2/2
f 67/2/2 64/2/2 68/2/2
f 69/2/2 70/2/2 73/2/2
f 71/2/2 72/2/2 74/2/2
f 69/2/2 73/2/2 76/2/2
f 73/1/2 74/1/2 77/1/2
f 76/2/2 73/2/2 77/2/2
f 74/2/2 72/2/2 78/2/2
f 77/1/2 74/1/2 78/1/2
f 78/2/2 72/2/2 79/2/2
f 75/2/2 76/2/2 81/2/2
f 81/2/2 76/2/2 82/2/2
f 79/2/2 80/2/2 83/2/2
f 83/2/2 80/2/2 84/2/2
f 85/2/2 86/2/2 89/2/2
f 89/2/2 86/2/2 90/2/2
f 87/2/2 88/2/2 91/2/2
f 91/2/2 88/2/2 92/2/2
f 90/1/2 91/1/2 93/1/2
f 93/1/2 91/1/2 94/1/2
f 95/2/2 96/2/2 99/2/2
f 99/2/2 96/2/2 100/2/2
f 99/3/2 100/3/2 101/3/2
f 101/3/2 100/3/2 102/3/2
f 101/2/2 102/2/2 103/2/2
f 103/2/2 102/2/2 104/2/2
f 97/2/2 98/2/2 105/2/2
f 105/2/2 98/2/2 106/2/2
f 104/1/2 105/1/2 107/1/2
f 107/1/2 105/1/2 108/1/2
f 109/1/2 110/1/2 111/1/2
f 111/1/2 110/1/2 112/1/2
f 113/2/2 114/2/2 117/2/2
f 117/2/2 114/2/2 118/2/2
f 115/2/2 116/2/2 119/2/2
f 119/2/2 116/2/2 120/2/2
f 118/1/2 119/1/2 121/1/2
f 121/1/2 119/1/2 122/1/2
f 123/1/2 124/1/2 125/1/2
f 125/1/2 124/1/2 126/1/2
f 127/2/2 128/2/2 131/2/2
f 129/2/2 130/2/2 134/2/2
f 131/2/2 132/2/2 135/2/2
f 127/2/2 131/2/2 135/2/2
f 135/2/2 132/2/2 136/2/2
f 133/2/2 134/2/2 137/2/2
f 134/2/2 130/2/2 138/2/2
f 137/2/2 134/2/2 138/2/2
f 136/1/2 137/1/2 139/1/2
f 139/1/2 137/1/2 140/1/2
f 141/1/2 142/1/2 145/1/2
f 145/1/2 142/1/2 146/1/2
f 143/1/2 144/1/2 149/1/2
f 149/1/2 144/1/2 150/1/2
f 147/1/2 148/1/2 151/1/2
f 151/1/2 148/1/2 152/1/2
f 153/1/2 154/1/2 157/1/2
f 157/1/2 154/1/2 158/1/2
f 155/1/2 156/1/2 159/1/2
f 159/1/2 156/1/2 160/1/2
f 161/1/2 162/1/2 163/1/2
f 163/1/2 162/1/2 164/1/2
f 167/2/3 166/2/3 165/2/3
f 168/2/3 166/2/3 167/2/3
f 173/2/3 172/2/3 171/2/3
f 174/2/3 172/2/3 173/2/3
f 175/2/3 170/2/3 169/2/3
f 176/2/3 170/2/3 175/2/3
f 179/2/3 178/2/3 177/2/3
f 180/2/3 179/2/3 177/2/3
f 181/2/3 179/2/3 180/2/3
f 184/1/3 183/1/3 182/1/3
f 185/1/3 183/1/3 184/1/3
f 188/2/3 187/2/3 186/2/3
f 189/2/3 187/2/3 188/2/3
f 190/2/3 188/2/3 186/2/3
f 190/3/3 189/3/3 188/3/3
f 191/2/3 187/2/3 189/2/3
f 191/3/3 189/3/3 190/3/3
f 192/2/3 187/2/3 191/2/3
f 193/2/3 190/2/3 186/2/3
f 193/2/3 191/2/3 190/2/3
f 194/2/3 191/2/3 193/2/3
f 195/3/3 192/3/3 191/3/3
f 195/2/3 191/2/3 194/2/3
f 196/2/3 187/2/3 192/2/3
f 196/3/3 192/3/3 195/3/3
f 197/2/3 187/2/3 196/2/3
f 198/3/3 194/3/3 193/3/3
f 199/2/3 195/2/3 194/2/3
f 199/3/3 194/3/3 198/3/3
f 199/2/3 196/2/3 195/2/3
f 200/2/3 196/2/3 199/2/3
f 201/2/3 196/2/3 200/2/3
f 202/2/3 196/2/3 201/2/3
f 203/2/3 199/2/3 198/2/3
f 204/3/3 200/3/3 199/3/3
f 204/2/3 199/2/3 203/2/3
f 205/2/3 201/2/3 200/2/3
f 205/3/3 200/3/3 204/3/3
f 206/2/3 201/2/3 205/2/3
f 209/1/3 208/1/3 207/1/3
f 210/1/3 208/1/3 209/1/3
f 214/1/3 212/1/3 211/1/3
f 215/1/3 212/1/3 214/1/3
f 219/1/3 214/1/3 213/1/3
f 220/1/3 214/1/3 219/1/3
f 221/1/3 218/1/3 217/1/3
f 221/1/3 217/1/3 216/1/3
f 221/1/3 219/1/3 218/1/3
f 222/1/3 219/1/3 221/1/3
f 224/1/3 221/1/3 216/1/3
f 225/1/3 221/1/3 224/1/3
f 226/1/3 224/1/3 223/1/3
f 227/1/3 224/1/3 226/1/3
f 229/1/3 226/1/3 223/1/3
f 230/1/3 226/1/3 229/1/3
f 231/1/3 229/1/3 228/1/3
f 232/1/3 229/1/3 231/1/3
f 235/1/3 234/1/3 233/1/3
f 236/1/3 234/1/3 235/1/3
f 240/2/3 238/2/3 237/2/3
f 241/2/3 238/2/3 240/2/3
f 242/2/3 240/2/3 239/2/3
f 243/2/3 240/2/3 242/2/3
f 247/2/3 245/2/3 244/2/3
f 248/2/3 245/2/3 247/2/3
f 249/2/3 247/2/3 246/2/3
f 250/2/3 247/2/3 249/2/3
f 253/2/3 252/2/3 251/2/3
f 254/2/3 252/2/3 253/2/3
f 255/2/4 256/2/4 257/2/4
f 257/2/4 256/2/4 258/2/4
f 259/2/4 260/2/4 262/2/4
f 262/2/4 260/2/4 263/2/4
f 261/2/4 262/2/4 264/2/4
f 264/2/4 262/2/4 265/2/4
f 266/2/4 267/2/4 269/2/4
f 269/2/4 267/2/4 270/2/4
f 268/2/4 269/2/4 271/2/4
f 271/2/4 269/2/4 272/2/4
f 273/1/4 274/1/4 276/1/4
f 276/1/4 274/1/4 277/1/4
f 275/1/4 276/1/4 279/1/4
f 279/1/4 276/1/4 280/1/4
f 278/1/4 279/1/4 281/1/4
f 281/1/4 279/1/4 282/1/4
f 278/1/4 281/1/4 284/1/4
f 284/1/4 281/1/4 285/1/4
f 283/1/4 284/1/4 286/1/4
f 286/1/4 284/1/4 287/1/4
f 283/1/4 286/1/4 289/1/4
f 289/1/4 286/1/4 290/1/4
f 288/1/4 289/1/4 291/1/4
f 291/1/4 289/1/4 292/1/4
f 293/1/4 294/1/4 295/1/4
f 295/1/4 294/1/4 296/1/4
f 297/2/4 298/2/4 299/2/4
f 299/2/4 298/2/4 300/2/4
f 297/2/4 299/2/4 301/2/4
f 301/2/4 299/2/4 302/2/4
f 297/2/4 301/2/4 303/2/4
f 303/2/4 301/2/4 304/2/4
f 305/1/4 306/1/4 307/1/4
f 307/1/4 306/1/4 308/1/4
f 309/1/4 310/1/4 311/1/4
f 311/1/4 310/1/4 312/1/4
f 313/2/4 314/2/4 315/2/4
f 313/2/4 315/2/4 316/2/4
f 316/2/4 315/2/4 317/2/4
f 320/2/4 321/2/4 322/2/4
f 322/2/4 321/2/4 323/2/4
f 318/2/4 319/2/4 324/2/4
f 324/2/4 319/2/4 325/2/4
f 326/2/4 327/2/4 328/2/4
f 328/2/4 327/2/4 329/2/4
f 332/2/5 331/2/5 330/2/5
f 334/1/5 333/1/5 332/1/5
f 336/1/5 335/1/5 334/1/5
f 338/1/5 336/1/5 334/1/5
f 338/1/5 337/1/5 336/1/5
f 339/1/5 337/1/5 338/1/5
f 340/1/5 334/1/5 332/1/5
f 340/1/5 338/1/5 334/1/5
f 341/1/5 338/1/5 340/1/5
f 342/2/5 332/2/5 330/2/5
f 342/1/5 340/1/5 332/1/5
f 343/1/5 340/1/5 342/1/5
f 344/2/5 342/2/5 330/2/5
f 345/2/5 342/2/5 344/2/5
f 348/2/5 347/2/5 346/2/5
f 349/2/5 347/2/5 348/2/5
f 350/2/5 348/2/5 346/2/5
f 352/2/5 350/2/5 346/2/5
f 352/2/5 351/2/5 350/2/5
f 353/2/5 351/2/5 352/2/5
f 356/2/5 355/2/5 354/2/5
f 357/2/5 355/2/5 356/2/5
f 358/2/5 356/2/5 354/2/5
f 360/2/5 358/2/5 354/2/5
f 360/2/5 359/2/5 358/2/5
f 361/2/5 359/2/5 360/2/5
f 362/1/6 363/1/6 364/1/6
f 362/1/6 364/1/6 366/1/6
f 364/1/6 365/1/6 366/1/6
f 366/1/6 365/1/6 367/1/6
f 367/1/6 365/1/6 368/1/6
f 368/1/6 369/1/6 371/1/6
f 367/1/6 368/1/6 371/1/6
f 371/1/6 369/1/6 372/1/6
f 372/1/6 369/1/6 373/1/6
f 370/1/6 371/1/6 374/1/6
f 371/1/6 372/1/6 374/1/6
f 374/1/6 372/1/6 375/1/6
f 370/1/6 374/1/6 376/1/6
f 376/1/6 374/1/6 377/1/6
f 378/2/6 379/2/6 380/2/6
f 380/2/6 379/2/6 381/2/6
f 381/2/6 379/2/6 382/2/6
f 382/2/6 379/2/6 383/2/6
f 383/1/6 384/1/6 386/1/6
f 386/1/6 384/1/6 387/1/6
f 378/2/6 380/2/6 388/2/6
f 385/2/6 386/2/6 389/2/6
f 378/2/6 388/2/6 390/2/6
f 388/2/6 389/2/6 390/2/6
f 389/2/6 386/2/6 391/2/6
f 390/2/6 389/2/6 391/2/6
f 392/1/6 393/1/6 394/1/6
f 394/1/6 393/1/6 395/1/6
f 396/2/6 397/2/6 398/2/6
f 398/2/6 397/2/6 399/2/6
f 399/2/6 397/2/6 400/2/6
f 400/2/6 397/2/6 401/2/6
f 401/2/6 397/2/6 402/2/6
f 402/2/6 397/2/6 403/2/6
f 396/2/6 398/2/6 405/2/6
f 396/2/6 405/2/6 406/2/6
f 403/1/6 404/1/6 408/1/6
f 408/1/6 404/1/6 409/1/6
f 396/2/6 406/2/6 410/2/6
f 407/2/6 408/2/6 411/2/6
f 396/2/6 410/2/6 412/2/6
f 410/2/6 411/2/6 412/2/6
f 411/2/6 408/2/6 413/2/6
f 412/2/6 411/2/6 413/2/6
f 414/1/6 415/1/6 416/1/6
f 416/1/6 415/1/6 417/1/6
f 418/2/6 419/2/6 420/2/6
f 420/2/6 419/2/6 421/2/6
f 421/1/6 422/1/6 424/1/6
f 424/1/6 422/1/6 425/1/6
f 423/2/6 424/2/6 426/2/6
f 426/2/6 424/2/6 427/2/6
f 428/2/6 429/2/6 430/2/6
f 430/2/6 429/2/6 431/2/6
f 431/1/6 432/1/6 434/1/6
f 434/1/6 432/1/6 435/1/6
f 433/2/6 434/2/6 436/2/6
f 436/2/6 434/2/6 437/2/6
f 438/1/6 439/1/6 440/1/6
f 440/1/6 439/1/6 441/1/6
f 442/2/6 443/2/6 445/2/6
f 445/2/6 443/2/6 446/2/6
f 444/2/6 445/2/6 447/2/6
f 445/1/6 446/1/6 448/1/6
f 447/2/6 445/2/6 448/2/6
f 448/1/6 446/1/6 449/1/6
f 448/2/6 449/2/6 450/2/6
f 450/2/6 449/2/6 451/2/6
f 452/2/6 453/2/6 455/2/6
f 454/2/6 455/2/6 457/2/6
f 455/2/6 453/2/6 458/2/6
f 457/2/6 455/2/6 458/2/6
f 456/2/6 457/2/6 460/2/6
f 460/2/6 457/2/6 461/2/6
f 459/2/6 460/2/6 462/2/6
f 462/2/6 460/2/6 463/2/6
f 463/2/6 464/2/6 465/2/6
f 465/2/6 464/2/6 466/2/6
f 466/2/6 467/2/6 468/2/6
f 468/2/6 467/2/6 469/2/6
f 469/2/6 467/2/6 470/2/6
f 470/2/6 467/2/6 471/2/6
f 472/2/6 473/2/6 474/2/6
f 474/2/6 473/2/6 475/2/6
f 472/2/6 474/2/6 476/2/6
f 476/2/6 474/2/6 477/2/6
f 472/2/6 476/2/6 478/2/6
f 478/2/6 476/2/6 479/2/6
f 472/2/6 478/2/6 480/2/6
f 480/2/6 481/2/6 482/2/6
f 482/2/6 483/2/6 484/2/6
f 482/2/6 484/2/6 486/2/6
f 484/2/6 485/2/6 486/2/6
f 472/2/6 480/2/6 486/2/6
f 480/2/6 482/2/6 486/2/6
f 486/2/6 485/2/6 487/2/6
