# MagicaVoxel @ Ephtracy

# group
o 

# material
mtllib Portal_3.2.1.mtl
usemtl palette

# normals
vn -1 0 0
vn 1 0 0
vn 0 0 1
vn 0 0 -1
vn 0 -1 0
vn 0 1 0

# texcoords
vt 0.970703 0.5
vt 0.986328 0.5

# verts
v -1.6 0 1.6
v -1.6 0 -1.6
v -1.6 0.5 1.6
v -1.6 0.5 -1.6
v -1.6 8.6 0.1
v -1.6 8.6 -0.1
v -1.6 8.7 0.1
v -1.6 8.7 -0.1
v -1.5 8.5 0.2
v -1.5 8.5 -0.1
v -1.5 8.6 0.3
v -1.5 8.6 0.2
v -1.5 8.6 0.1
v -1.5 8.6 -0.1
v -1.5 8.6 -0.2
v -1.5 8.7 0.3
v -1.5 8.7 0.1
v -1.5 8.7 -0.1
v -1.5 8.7 -0.2
v -1.4 8.5 0.3
v -1.4 8.5 0.2
v -1.4 8.5 -0.1
v -1.4 8.5 -0.3
v -1.4 8.6 0.4
v -1.4 8.6 0.3
v -1.4 8.6 0.2
v -1.4 8.6 -0.1
v -1.4 8.6 -0.2
v -1.4 8.7 0.4
v -1.4 8.7 0.3
v -1.4 8.7 -0.2
v -1.4 8.7 -0.3
v -1.3 8.4 0.3
v -1.3 8.4 -0.3
v -1.3 8.5 0.4
v -1.3 8.5 0.3
v -1.3 8.5 -0.3
v -1.3 8.5 -0.4
v -1.3 8.6 0.4
v -1.3 8.6 0.3
v -1.3 8.7 -0.3
v -1.3 8.7 -0.4
v -1.2 8.3 0.3
v -1.2 8.3 -0.3
v -1.2 8.4 0.4
v -1.2 8.4 0.3
v -1.2 8.4 -0.3
v -1.2 8.5 0.4
v -1.2 8.5 0.3
v -1.1 0.5 0.2
v -1.1 0.5 -0.2
v -1.1 0.6 0.2
v -1.1 0.6 -0.2
v -1.1 8.2 0.2
v -1.1 8.2 -0.3
v -1.1 8.3 0.2
v -1.1 8.3 -0.3
v -1.1 8.3 -0.4
v -1.1 8.5 -0.3
v -1.1 8.5 -0.4
v -1 8.2 0.3
v -1 8.2 0.2
v -1 8.3 0.4
v -1 8.3 0.3
v -1 8.3 0.2
v -1 8.4 0.4
v -1 8.4 0.3
v -0.9 8.1 0.3
v -0.9 8.1 -0.3
v -0.9 8.2 0.4
v -0.9 8.2 0.3
v -0.9 8.2 -0.3
v -0.9 8.2 -0.4
v -0.9 8.3 0.4
v -0.9 8.3 0.3
v -0.9 8.3 -0.3
v -0.9 8.3 -0.4
v -0.8 8.1 -0.3
v -0.8 8.1 -0.4
v -0.8 8.2 -0.3
v -0.8 8.2 -0.4
v -0.7 8.1 0.4
v -0.7 8.1 0.3
v -0.7 8.2 0.4
v -0.7 8.2 0.3
v -0.1 0.5 0.2
v -0.1 0.5 -0.2
v -0.1 0.6 0.2
v -0.1 0.6 -0.2
v -0.1 8 0.2
v -0.1 8 -0.2
v -0.1 8.1 0.2
v -0.1 8.1 -0.2
v 0.9 0.5 0.2
v 0.9 0.5 -0.2
v 0.9 0.6 0.2
v 0.9 0.6 -0.2
v 0.9 8 0.2
v 0.9 8 -0.2
v 0.9 8.1 0.2
v 0.9 8.1 -0.2
v -0.9 0.5 0.2
v -0.9 0.5 -0.2
v -0.9 0.6 0.2
v -0.9 0.6 -0.2
v 0.1 0.5 0.2
v 0.1 0.5 -0.2
v 0.1 0.6 0.2
v 0.1 0.6 -0.2
v 0.1 8 0.2
v 0.1 8 -0.2
v 0.1 8.1 0.2
v 0.1 8.1 -0.2
v 1.1 0.5 0.2
v 1.1 0.5 -0.2
v 1.1 0.6 0.2
v 1.1 0.6 -0.2
v 1.1 8 0.2
v 1.1 8 -0.2
v 1.1 8.1 0.2
v 1.1 8.1 -0.2
v 1.6 0 1.6
v 1.6 0 -1.6
v 1.6 0.5 1.6
v 1.6 0.5 -1.6
v 1.6 8.1 0.4
v 1.6 8.1 -0.4
v 1.6 8.7 0.4
v 1.6 8.7 -0.4
v -1.6 0 1.6
v -1.6 0.5 1.6
v 1.6 0 1.6
v 1.6 0.5 1.6
v -1.4 8.6 0.4
v -1.4 8.7 0.4
v -1.3 8.5 0.4
v -1.3 8.6 0.4
v -1.2 8.4 0.4
v -1.2 8.5 0.4
v -1 8.3 0.4
v -1 8.4 0.4
v -0.9 8.2 0.4
v -0.9 8.3 0.4
v -0.7 8.1 0.4
v -0.7 8.2 0.4
v 1.6 8.1 0.4
v 1.6 8.7 0.4
v -1.5 8.6 0.3
v -1.5 8.7 0.3
v -1.4 8.5 0.3
v -1.4 8.6 0.3
v -1.4 8.7 0.3
v -1.3 8.4 0.3
v -1.3 8.5 0.3
v -1.3 8.6 0.3
v -1.2 8.3 0.3
v -1.2 8.4 0.3
v -1.2 8.5 0.3
v -1 8.2 0.3
v -1 8.3 0.3
v -1 8.4 0.3
v -0.9 8.1 0.3
v -0.9 8.2 0.3
v -0.9 8.3 0.3
v -0.7 8.1 0.3
v -0.7 8.2 0.3
v -1.5 8.5 0.2
v -1.5 8.6 0.2
v -1.4 8.5 0.2
v -1.4 8.6 0.2
v -1.1 0.5 0.2
v -1.1 0.6 0.2
v -1.1 8.2 0.2
v -1.1 8.3 0.2
v -1 8.2 0.2
v -1 8.3 0.2
v -0.9 0.5 0.2
v -0.9 0.6 0.2
v -0.1 0.5 0.2
v -0.1 0.6 0.2
v -0.1 8 0.2
v -0.1 8.1 0.2
v 0.1 0.5 0.2
v 0.1 0.6 0.2
v 0.1 8 0.2
v 0.1 8.1 0.2
v 0.9 0.5 0.2
v 0.9 0.6 0.2
v 0.9 8 0.2
v 0.9 8.1 0.2
v 1.1 0.5 0.2
v 1.1 0.6 0.2
v 1.1 8 0.2
v 1.1 8.1 0.2
v -1.6 8.6 0.1
v -1.6 8.7 0.1
v -1.5 8.6 0.1
v -1.5 8.7 0.1
v -1.6 8.6 -0.1
v -1.6 8.7 -0.1
v -1.5 8.5 -0.1
v -1.5 8.6 -0.1
v -1.5 8.7 -0.1
v -1.4 8.5 -0.1
v -1.4 8.6 -0.1
v -1.5 8.6 -0.2
v -1.5 8.7 -0.2
v -1.4 8.6 -0.2
v -1.4 8.7 -0.2
v -1.1 0.5 -0.2
v -1.1 0.6 -0.2
v -0.9 0.5 -0.2
v -0.9 0.6 -0.2
v -0.1 0.5 -0.2
v -0.1 0.6 -0.2
v -0.1 8 -0.2
v -0.1 8.1 -0.2
v 0.1 0.5 -0.2
v 0.1 0.6 -0.2
v 0.1 8 -0.2
v 0.1 8.1 -0.2
v 0.9 0.5 -0.2
v 0.9 0.6 -0.2
v 0.9 8 -0.2
v 0.9 8.1 -0.2
v 1.1 0.5 -0.2
v 1.1 0.6 -0.2
v 1.1 8 -0.2
v 1.1 8.1 -0.2
v -1.4 8.5 -0.3
v -1.4 8.7 -0.3
v -1.3 8.4 -0.3
v -1.3 8.5 -0.3
v -1.3 8.7 -0.3
v -1.2 8.3 -0.3
v -1.2 8.4 -0.3
v -1.1 8.2 -0.3
v -1.1 8.3 -0.3
v -1.1 8.5 -0.3
v -0.9 8.1 -0.3
v -0.9 8.2 -0.3
v -0.9 8.3 -0.3
v -0.8 8.1 -0.3
v -0.8 8.2 -0.3
v -1.3 8.5 -0.4
v -1.3 8.7 -0.4
v -1.1 8.3 -0.4
v -1.1 8.5 -0.4
v -0.9 8.2 -0.4
v -0.9 8.3 -0.4
v -0.8 8.1 -0.4
v -0.8 8.2 -0.4
v 1.6 8.1 -0.4
v 1.6 8.7 -0.4
v -1.6 0 -1.6
v -1.6 0.5 -1.6
v 1.6 0 -1.6
v 1.6 0.5 -1.6
v -1.6 0 1.6
v 1.6 0 1.6
v -1.6 0 -1.6
v 1.6 0 -1.6
v -0.1 8 0.2
v 0.1 8 0.2
v 0.9 8 0.2
v 1.1 8 0.2
v -0.1 8 -0.2
v 0.1 8 -0.2
v 0.9 8 -0.2
v 1.1 8 -0.2
v -0.7 8.1 0.4
v 1.6 8.1 0.4
v -0.9 8.1 0.3
v -0.7 8.1 0.3
v -0.1 8.1 0.2
v 0.1 8.1 0.2
v 0.9 8.1 0.2
v 1.1 8.1 0.2
v -0.1 8.1 -0.2
v 0.1 8.1 -0.2
v 0.9 8.1 -0.2
v 1.1 8.1 -0.2
v -0.9 8.1 -0.3
v -0.8 8.1 -0.3
v -0.8 8.1 -0.4
v 1.6 8.1 -0.4
v -0.9 8.2 0.4
v -0.7 8.2 0.4
v -1 8.2 0.3
v -0.9 8.2 0.3
v -0.7 8.2 0.3
v -1.1 8.2 0.2
v -1 8.2 0.2
v -1.1 8.2 -0.3
v -0.9 8.2 -0.3
v -0.8 8.2 -0.3
v -0.9 8.2 -0.4
v -0.8 8.2 -0.4
v -1 8.3 0.4
v -0.9 8.3 0.4
v -1.2 8.3 0.3
v -1 8.3 0.3
v -0.9 8.3 0.3
v -1.1 8.3 0.2
v -1 8.3 0.2
v -1.2 8.3 -0.3
v -1.1 8.3 -0.3
v -0.9 8.3 -0.3
v -1.1 8.3 -0.4
v -0.9 8.3 -0.4
v -1.2 8.4 0.4
v -1 8.4 0.4
v -1.3 8.4 0.3
v -1.2 8.4 0.3
v -1 8.4 0.3
v -1.3 8.4 -0.3
v -1.2 8.4 -0.3
v -1.3 8.5 0.4
v -1.2 8.5 0.4
v -1.4 8.5 0.3
v -1.3 8.5 0.3
v -1.2 8.5 0.3
v -1.5 8.5 0.2
v -1.4 8.5 0.2
v -1.5 8.5 -0.1
v -1.4 8.5 -0.1
v -1.4 8.5 -0.3
v -1.3 8.5 -0.3
v -1.1 8.5 -0.3
v -1.3 8.5 -0.4
v -1.1 8.5 -0.4
v -1.4 8.6 0.4
v -1.3 8.6 0.4
v -1.5 8.6 0.3
v -1.4 8.6 0.3
v -1.3 8.6 0.3
v -1.5 8.6 0.2
v -1.4 8.6 0.2
v -1.6 8.6 0.1
v -1.5 8.6 0.1
v -1.6 8.6 -0.1
v -1.5 8.6 -0.1
v -1.4 8.6 -0.1
v -1.5 8.6 -0.2
v -1.4 8.6 -0.2
v -1.6 0.5 1.6
v 1.6 0.5 1.6
v -1.1 0.5 0.2
v -0.9 0.5 0.2
v -0.1 0.5 0.2
v 0.1 0.5 0.2
v 0.9 0.5 0.2
v 1.1 0.5 0.2
v -1.1 0.5 -0.2
v -0.9 0.5 -0.2
v -0.1 0.5 -0.2
v 0.1 0.5 -0.2
v 0.9 0.5 -0.2
v 1.1 0.5 -0.2
v -1.6 0.5 -1.6
v 1.6 0.5 -1.6
v -1.1 0.6 0.2
v -0.9 0.6 0.2
v -0.1 0.6 0.2
v 0.1 0.6 0.2
v 0.9 0.6 0.2
v 1.1 0.6 0.2
v -1.1 0.6 -0.2
v -0.9 0.6 -0.2
v -0.1 0.6 -0.2
v 0.1 0.6 -0.2
v 0.9 0.6 -0.2
v 1.1 0.6 -0.2
v -1.4 8.7 0.4
v 1.6 8.7 0.4
v -1.5 8.7 0.3
v -1.4 8.7 0.3
v -1.6 8.7 0.1
v -1.5 8.7 0.1
v -1.6 8.7 -0.1
v -1.5 8.7 -0.1
v -1.5 8.7 -0.2
v -1.4 8.7 -0.2
v -1.4 8.7 -0.3
v -1.3 8.7 -0.3
v -1.3 8.7 -0.4
v 1.6 8.7 -0.4

# faces
f 3/1/1 2/1/1 1/1/1
f 4/1/1 2/1/1 3/1/1
f 7/1/1 6/1/1 5/1/1
f 8/1/1 6/1/1 7/1/1
f 12/1/1 10/1/1 9/1/1
f 13/1/1 10/1/1 12/1/1
f 14/1/1 10/1/1 13/1/1
f 16/1/1 12/1/1 11/1/1
f 16/1/1 13/1/1 12/1/1
f 17/1/1 13/1/1 16/1/1
f 18/1/1 15/1/1 14/1/1
f 19/1/1 15/1/1 18/1/1
f 25/1/1 21/1/1 20/1/1
f 26/1/1 21/1/1 25/1/1
f 27/1/1 23/1/1 22/1/1
f 28/1/1 23/1/1 27/1/1
f 29/1/1 25/1/1 24/1/1
f 30/1/1 25/1/1 29/1/1
f 31/1/1 23/1/1 28/1/1
f 32/1/1 23/1/1 31/1/1
f 36/1/1 34/1/1 33/1/1
f 37/1/1 34/1/1 36/1/1
f 39/1/1 36/1/1 35/1/1
f 40/1/1 36/1/1 39/1/1
f 41/1/1 38/1/1 37/1/1
f 42/1/1 38/1/1 41/1/1
f 46/1/1 44/1/1 43/1/1
f 47/1/1 44/1/1 46/1/1
f 48/1/1 46/1/1 45/1/1
f 49/1/1 46/1/1 48/1/1
f 52/2/1 51/2/1 50/2/1
f 53/2/1 51/2/1 52/2/1
f 56/1/1 55/1/1 54/1/1
f 57/1/1 55/1/1 56/1/1
f 59/1/1 58/1/1 57/1/1
f 60/1/1 58/1/1 59/1/1
f 64/1/1 62/1/1 61/1/1
f 65/1/1 62/1/1 64/1/1
f 66/1/1 64/1/1 63/1/1
f 67/1/1 64/1/1 66/1/1
f 71/1/1 69/1/1 68/1/1
f 72/1/1 69/1/1 71/1/1
f 74/1/1 71/1/1 70/1/1
f 75/1/1 71/1/1 74/1/1
f 76/1/1 73/1/1 72/1/1
f 77/1/1 73/1/1 76/1/1
f 80/1/1 79/1/1 78/1/1
f 81/1/1 79/1/1 80/1/1
f 84/1/1 83/1/1 82/1/1
f 85/1/1 83/1/1 84/1/1
f 88/2/1 87/2/1 86/2/1
f 89/2/1 87/2/1 88/2/1
f 92/2/1 91/2/1 90/2/1
f 93/2/1 91/2/1 92/2/1
f 96/2/1 95/2/1 94/2/1
f 97/2/1 95/2/1 96/2/1
f 100/2/1 99/2/1 98/2/1
f 101/2/1 99/2/1 100/2/1
f 102/2/2 103/2/2 104/2/2
f 104/2/2 103/2/2 105/2/2
f 106/2/2 107/2/2 108/2/2
f 108/2/2 107/2/2 109/2/2
f 110/2/2 111/2/2 112/2/2
f 112/2/2 111/2/2 113/2/2
f 114/2/2 115/2/2 116/2/2
f 116/2/2 115/2/2 117/2/2
f 118/2/2 119/2/2 120/2/2
f 120/2/2 119/2/2 121/2/2
f 122/1/2 123/1/2 124/1/2
f 124/1/2 123/1/2 125/1/2
f 126/1/2 127/1/2 128/1/2
f 128/1/2 127/1/2 129/1/2
f 132/1/3 131/1/3 130/1/3
f 133/1/3 131/1/3 132/1/3
f 137/1/3 135/1/3 134/1/3
f 139/1/3 137/1/3 136/1/3
f 141/1/3 139/1/3 138/1/3
f 143/1/3 141/1/3 140/1/3
f 145/1/3 143/1/3 142/1/3
f 146/1/3 145/1/3 144/1/3
f 147/1/3 135/1/3 137/1/3
f 147/1/3 145/1/3 146/1/3
f 147/1/3 137/1/3 139/1/3
f 147/1/3 143/1/3 145/1/3
f 147/1/3 139/1/3 141/1/3
f 147/1/3 141/1/3 143/1/3
f 151/1/3 149/1/3 148/1/3
f 152/1/3 149/1/3 151/1/3
f 154/1/3 151/1/3 150/1/3
f 155/1/3 151/1/3 154/1/3
f 157/1/3 154/1/3 153/1/3
f 158/1/3 154/1/3 157/1/3
f 160/1/3 157/1/3 156/1/3
f 161/1/3 157/1/3 160/1/3
f 163/1/3 160/1/3 159/1/3
f 164/1/3 160/1/3 163/1/3
f 165/1/3 163/1/3 162/1/3
f 166/1/3 163/1/3 165/1/3
f 169/1/3 168/1/3 167/1/3
f 170/1/3 168/1/3 169/1/3
f 175/1/3 174/1/3 173/1/3
f 176/1/3 174/1/3 175/1/3
f 177/2/3 172/2/3 171/2/3
f 178/2/3 172/2/3 177/2/3
f 183/2/3 180/2/3 179/2/3
f 184/2/3 180/2/3 183/2/3
f 185/2/3 182/2/3 181/2/3
f 186/2/3 182/2/3 185/2/3
f 191/2/3 188/2/3 187/2/3
f 192/2/3 188/2/3 191/2/3
f 193/2/3 190/2/3 189/2/3
f 194/2/3 190/2/3 193/2/3
f 197/1/3 196/1/3 195/1/3
f 198/1/3 196/1/3 197/1/3
f 199/1/4 200/1/4 202/1/4
f 202/1/4 200/1/4 203/1/4
f 201/1/4 202/1/4 204/1/4
f 204/1/4 202/1/4 205/1/4
f 206/1/4 207/1/4 208/1/4
f 208/1/4 207/1/4 209/1/4
f 210/2/4 211/2/4 212/2/4
f 212/2/4 211/2/4 213/2/4
f 214/2/4 215/2/4 218/2/4
f 218/2/4 215/2/4 219/2/4
f 216/2/4 217/2/4 220/2/4
f 220/2/4 217/2/4 221/2/4
f 222/2/4 223/2/4 226/2/4
f 226/2/4 223/2/4 227/2/4
f 224/2/4 225/2/4 228/2/4
f 228/2/4 225/2/4 229/2/4
f 230/1/4 231/1/4 233/1/4
f 233/1/4 231/1/4 234/1/4
f 232/1/4 233/1/4 236/1/4
f 235/1/4 236/1/4 238/1/4
f 236/1/4 233/1/4 239/1/4
f 238/1/4 236/1/4 239/1/4
f 237/1/4 238/1/4 241/1/4
f 241/1/4 238/1/4 242/1/4
f 240/1/4 241/1/4 243/1/4
f 243/1/4 241/1/4 244/1/4
f 245/1/4 246/1/4 248/1/4
f 247/1/4 248/1/4 250/1/4
f 249/1/4 250/1/4 252/1/4
f 251/1/4 252/1/4 253/1/4
f 248/1/4 246/1/4 254/1/4
f 253/1/4 252/1/4 254/1/4
f 250/1/4 248/1/4 254/1/4
f 252/1/4 250/1/4 254/1/4
f 255/1/4 256/1/4 257/1/4
f 257/1/4 256/1/4 258/1/4
f 261/1/5 260/1/5 259/1/5
f 262/1/5 260/1/5 261/1/5
f 267/2/5 264/2/5 263/2/5
f 268/2/5 264/2/5 267/2/5
f 269/2/5 266/2/5 265/2/5
f 270/2/5 266/2/5 269/2/5
f 274/1/5 272/1/5 271/1/5
f 275/1/5 272/1/5 274/1/5
f 275/1/5 274/1/5 273/1/5
f 276/1/5 272/1/5 275/1/5
f 277/1/5 272/1/5 276/1/5
f 278/1/5 272/1/5 277/1/5
f 279/1/5 275/1/5 273/1/5
f 280/1/5 277/1/5 276/1/5
f 281/1/5 277/1/5 280/1/5
f 282/1/5 272/1/5 278/1/5
f 283/1/5 281/1/5 280/1/5
f 283/1/5 282/1/5 281/1/5
f 283/1/5 279/1/5 273/1/5
f 283/1/5 280/1/5 279/1/5
f 284/1/5 282/1/5 283/1/5
f 285/1/5 282/1/5 284/1/5
f 286/1/5 272/1/5 282/1/5
f 286/1/5 282/1/5 285/1/5
f 290/1/5 288/1/5 287/1/5
f 291/1/5 288/1/5 290/1/5
f 293/1/5 290/1/5 289/1/5
f 294/1/5 293/1/5 292/1/5
f 295/1/5 290/1/5 293/1/5
f 295/1/5 293/1/5 294/1/5
f 297/1/5 296/1/5 295/1/5
f 298/1/5 296/1/5 297/1/5
f 302/1/5 300/1/5 299/1/5
f 303/1/5 300/1/5 302/1/5
f 304/1/5 302/1/5 301/1/5
f 305/1/5 302/1/5 304/1/5
f 306/1/5 304/1/5 301/1/5
f 307/1/5 304/1/5 306/1/5
f 309/1/5 308/1/5 307/1/5
f 310/1/5 308/1/5 309/1/5
f 314/1/5 312/1/5 311/1/5
f 315/1/5 312/1/5 314/1/5
f 316/1/5 314/1/5 313/1/5
f 317/1/5 314/1/5 316/1/5
f 321/1/5 319/1/5 318/1/5
f 322/1/5 319/1/5 321/1/5
f 324/1/5 321/1/5 320/1/5
f 325/1/5 324/1/5 323/1/5
f 326/1/5 321/1/5 324/1/5
f 326/1/5 324/1/5 325/1/5
f 327/1/5 321/1/5 326/1/5
f 328/1/5 321/1/5 327/1/5
f 330/1/5 329/1/5 328/1/5
f 331/1/5 329/1/5 330/1/5
f 335/1/5 333/1/5 332/1/5
f 336/1/5 333/1/5 335/1/5
f 337/1/5 335/1/5 334/1/5
f 338/1/5 335/1/5 337/1/5
f 341/1/5 340/1/5 339/1/5
f 342/1/5 340/1/5 341/1/5
f 344/1/5 343/1/5 342/1/5
f 345/1/5 343/1/5 344/1/5
f 346/1/6 347/1/6 348/1/6
f 348/1/6 347/1/6 349/1/6
f 349/1/6 347/1/6 350/1/6
f 350/1/6 347/1/6 351/1/6
f 351/1/6 347/1/6 352/1/6
f 352/1/6 347/1/6 353/1/6
f 346/1/6 348/1/6 354/1/6
f 349/1/6 350/1/6 355/1/6
f 355/1/6 350/1/6 356/1/6
f 351/1/6 352/1/6 357/1/6
f 357/1/6 352/1/6 358/1/6
f 353/1/6 347/1/6 359/1/6
f 357/1/6 358/1/6 360/1/6
f 358/1/6 359/1/6 360/1/6
f 355/1/6 356/1/6 360/1/6
f 346/1/6 354/1/6 360/1/6
f 356/1/6 357/1/6 360/1/6
f 354/1/6 355/1/6 360/1/6
f 359/1/6 347/1/6 361/1/6
f 360/1/6 359/1/6 361/1/6
f 362/2/6 363/2/6 368/2/6
f 368/2/6 363/2/6 369/2/6
f 364/2/6 365/2/6 370/2/6
f 370/2/6 365/2/6 371/2/6
f 366/2/6 367/2/6 372/2/6
f 372/2/6 367/2/6 373/2/6
f 374/1/6 375/1/6 377/1/6
f 376/1/6 377/1/6 379/1/6
f 378/1/6 379/1/6 380/1/6
f 379/1/6 377/1/6 381/1/6
f 380/1/6 379/1/6 381/1/6
f 381/1/6 377/1/6 382/1/6
f 377/1/6 375/1/6 383/1/6
f 382/1/6 377/1/6 383/1/6
f 383/1/6 375/1/6 384/1/6
f 384/1/6 375/1/6 385/1/6
f 385/1/6 375/1/6 386/1/6
f 386/1/6 375/1/6 387/1/6
